<svg width="19" height="19" viewBox="0 0 19 19" fill="none" xmlns="http://www.w3.org/2000/svg">
<path fill-rule="evenodd" clip-rule="evenodd" d="M18.4011 9.42741C18.4008 7.6692 17.8967 5.9479 16.9485 4.46729C16.0004 2.98667 14.6478 1.80874 13.0509 1.07295C11.4541 0.337151 9.67987 0.0743045 7.93829 0.315521C6.19671 0.556738 4.56072 1.29191 3.22399 2.43402C1.88725 3.57613 0.905747 5.07734 0.395679 6.75993C-0.114388 8.44253 -0.131665 10.236 0.345897 11.9281C0.82346 13.6202 1.77586 15.1401 3.09035 16.3077C4.40485 17.4754 6.02635 18.2419 7.76296 18.5167V12.0878H5.42626V9.42741H7.76296V7.40001C7.76296 5.09453 9.13692 3.82001 11.2383 3.82001C11.9283 3.82963 12.6168 3.88976 13.2981 3.99991V6.26432H12.1373C11.9396 6.23814 11.7385 6.25678 11.5489 6.31883C11.3594 6.38089 11.1862 6.48477 11.0422 6.62281C10.8982 6.76085 10.787 6.92951 10.717 7.1163C10.647 7.30309 10.6199 7.50323 10.6377 7.70191V9.42784H13.1893L12.7818 12.0882H10.6377V18.5175C12.8021 18.1747 14.7731 17.0709 16.1962 15.4045C17.6194 13.7382 18.4012 11.6187 18.4011 9.42741Z" fill="white"/>
</svg>
