<svg width="547" height="549" viewBox="0 0 547 549" fill="none" xmlns="http://www.w3.org/2000/svg">
<path d="M504.717 154.468L353.343 154.468C350.466 154.468 347.707 153.443 345.672 151.618C343.638 149.793 342.495 147.318 342.495 144.737V45.889C342.495 43.3094 343.637 40.8354 345.671 39.0113C347.704 37.1872 350.462 36.1625 353.338 36.1625L504.722 36.1625C507.597 36.1625 510.355 37.1872 512.389 39.0113C514.423 40.8354 515.565 43.3094 515.565 45.889V144.737C515.565 147.318 514.422 149.793 512.387 151.618C510.353 153.443 507.594 154.468 504.717 154.468Z" fill="white"/>
<path d="M342.042 144.736V45.888C342.042 43.2005 343.232 40.6231 345.351 38.7228C347.469 36.8225 350.343 35.7549 353.339 35.7549H504.722C507.718 35.7549 510.591 36.8225 512.71 38.7228C514.828 40.6231 516.018 43.2005 516.018 45.888V144.736C516.018 146.067 515.726 147.385 515.158 148.615C514.59 149.845 513.758 150.963 512.708 151.904C511.659 152.845 510.413 153.592 509.042 154.102C507.671 154.611 506.201 154.873 504.717 154.873H353.344C351.86 154.873 350.39 154.611 349.019 154.102C347.648 153.592 346.402 152.845 345.352 151.904C344.303 150.963 343.47 149.845 342.902 148.615C342.334 147.385 342.042 146.067 342.042 144.736ZM353.339 36.568C350.583 36.5687 347.941 37.5509 345.994 39.2987C344.046 41.0465 342.951 43.4167 342.951 45.888V144.736C342.951 147.209 344.047 149.58 345.996 151.329C347.946 153.078 350.59 154.06 353.347 154.06H504.717C507.474 154.06 510.118 153.078 512.067 151.329C514.017 149.58 515.112 147.209 515.112 144.736V45.888C515.112 43.4162 514.017 41.0456 512.069 39.2978C510.12 37.55 507.477 36.568 504.722 36.568H353.339Z" fill="#292A2E"/>
<path d="M342.497 45.8877V54.1239H515.564V45.8877C515.564 43.308 514.422 40.8341 512.388 39.01C510.355 37.1859 507.597 36.1611 504.721 36.1611H353.339C351.915 36.1611 350.505 36.4127 349.19 36.9015C347.874 37.3903 346.679 38.1068 345.672 39.01C344.665 39.9132 343.867 40.9855 343.322 42.1655C342.777 43.3456 342.496 44.6104 342.497 45.8877Z" fill="#292A2E"/>
<path d="M401.602 67.4371H393.435C393.339 67.4371 393.247 67.4029 393.179 67.3419C393.111 67.2809 393.073 67.1981 393.073 67.1119C393.073 67.0256 393.111 66.9429 393.179 66.8819C393.247 66.8209 393.339 66.7866 393.435 66.7866H401.602C401.698 66.7866 401.79 66.8209 401.858 66.8819C401.926 66.9429 401.965 67.0256 401.965 67.1119C401.965 67.1981 401.926 67.2809 401.858 67.3419C401.79 67.4029 401.698 67.4371 401.602 67.4371Z" fill="#292A2E"/>
<path d="M387.547 67.4371H384.457C384.361 67.4371 384.268 67.4029 384.2 67.3419C384.132 67.2809 384.094 67.1981 384.094 67.1119C384.094 67.0256 384.132 66.9429 384.2 66.8819C384.268 66.8209 384.361 66.7866 384.457 66.7866H387.547C387.643 66.7866 387.735 66.8209 387.803 66.8819C387.871 66.9429 387.91 67.0256 387.91 67.1119C387.91 67.1981 387.871 67.2809 387.803 67.3419C387.735 67.4029 387.643 67.4371 387.547 67.4371Z" fill="#C72A47"/>
<path d="M387.547 73.3038H384.457C384.361 73.3038 384.268 73.2696 384.2 73.2086C384.132 73.1476 384.094 73.0648 384.094 72.9786C384.094 72.8923 384.132 72.8096 384.2 72.7486C384.268 72.6876 384.361 72.6533 384.457 72.6533H387.547C387.643 72.6533 387.735 72.6876 387.803 72.7486C387.871 72.8096 387.91 72.8923 387.91 72.9786C387.91 73.0648 387.871 73.1476 387.803 73.2086C387.735 73.2696 387.643 73.3038 387.547 73.3038Z" fill="#C72A47"/>
<path d="M387.547 79.1735H384.457C384.361 79.1735 384.268 79.1392 384.2 79.0782C384.132 79.0172 384.094 78.9345 384.094 78.8482C384.094 78.7619 384.132 78.6792 384.2 78.6182C384.268 78.5572 384.361 78.5229 384.457 78.5229H387.547C387.643 78.5229 387.735 78.5572 387.803 78.6182C387.871 78.6792 387.91 78.7619 387.91 78.8482C387.91 78.9345 387.871 79.0172 387.803 79.0782C387.735 79.1392 387.643 79.1735 387.547 79.1735Z" fill="#C72A47"/>
<path d="M387.547 85.0402H384.457C384.361 85.0402 384.268 85.0059 384.2 84.9449C384.132 84.8839 384.094 84.8012 384.094 84.7149C384.094 84.6286 384.132 84.5459 384.2 84.4849C384.268 84.4239 384.361 84.3896 384.457 84.3896H387.547C387.643 84.3896 387.735 84.4239 387.803 84.4849C387.871 84.5459 387.91 84.6286 387.91 84.7149C387.91 84.8012 387.871 84.8839 387.803 84.9449C387.735 85.0059 387.643 85.0402 387.547 85.0402Z" fill="#C72A47"/>
<path d="M387.547 90.9074H384.457C384.361 90.9074 384.268 90.8731 384.2 90.8121C384.132 90.7511 384.094 90.6684 384.094 90.5821C384.094 90.4958 384.132 90.4131 384.2 90.3521C384.268 90.2911 384.361 90.2568 384.457 90.2568H387.547C387.643 90.2568 387.735 90.2911 387.803 90.3521C387.871 90.4131 387.91 90.4958 387.91 90.5821C387.91 90.6684 387.871 90.7511 387.803 90.8121C387.735 90.8731 387.643 90.9074 387.547 90.9074Z" fill="#C72A47"/>
<path d="M387.547 96.7745H384.457C384.361 96.7745 384.268 96.7403 384.2 96.6793C384.132 96.6183 384.094 96.5355 384.094 96.4493C384.094 96.363 384.132 96.2803 384.2 96.2193C384.268 96.1583 384.361 96.124 384.457 96.124H387.547C387.643 96.124 387.735 96.1583 387.803 96.2193C387.871 96.2803 387.91 96.363 387.91 96.4493C387.91 96.5355 387.871 96.6183 387.803 96.6793C387.735 96.7403 387.643 96.7745 387.547 96.7745Z" fill="#C72A47"/>
<path d="M387.547 102.643H384.457C384.361 102.643 384.268 102.608 384.2 102.547C384.132 102.486 384.094 102.404 384.094 102.317C384.094 102.231 384.132 102.148 384.2 102.087C384.268 102.026 384.361 101.992 384.457 101.992H387.547C387.643 101.992 387.735 102.026 387.803 102.087C387.871 102.148 387.91 102.231 387.91 102.317C387.91 102.404 387.871 102.486 387.803 102.547C387.735 102.608 387.643 102.643 387.547 102.643Z" fill="#C72A47"/>
<path d="M387.547 108.51H384.457C384.361 108.51 384.268 108.476 384.2 108.415C384.132 108.354 384.094 108.271 384.094 108.185C384.094 108.098 384.132 108.016 384.2 107.955C384.268 107.894 384.361 107.859 384.457 107.859H387.547C387.643 107.859 387.735 107.894 387.803 107.955C387.871 108.016 387.91 108.098 387.91 108.185C387.91 108.271 387.871 108.354 387.803 108.415C387.735 108.476 387.643 108.51 387.547 108.51Z" fill="#C72A47"/>
<path d="M387.547 114.377H384.457C384.361 114.377 384.268 114.343 384.2 114.282C384.132 114.221 384.094 114.138 384.094 114.052C384.094 113.966 384.132 113.883 384.2 113.822C384.268 113.761 384.361 113.727 384.457 113.727H387.547C387.643 113.727 387.735 113.761 387.803 113.822C387.871 113.883 387.91 113.966 387.91 114.052C387.91 114.138 387.871 114.221 387.803 114.282C387.735 114.343 387.643 114.377 387.547 114.377Z" fill="#C72A47"/>
<path d="M387.547 120.245H384.457C384.361 120.245 384.268 120.211 384.2 120.15C384.132 120.089 384.094 120.006 384.094 119.92C384.094 119.834 384.132 119.751 384.2 119.69C384.268 119.629 384.361 119.595 384.457 119.595H387.547C387.643 119.595 387.735 119.629 387.803 119.69C387.871 119.751 387.91 119.834 387.91 119.92C387.91 120.006 387.871 120.089 387.803 120.15C387.735 120.211 387.643 120.245 387.547 120.245Z" fill="#C72A47"/>
<path d="M387.547 126.114H384.457C384.361 126.114 384.268 126.08 384.2 126.019C384.132 125.958 384.094 125.875 384.094 125.789C384.094 125.702 384.132 125.62 384.2 125.559C384.268 125.498 384.361 125.463 384.457 125.463H387.547C387.643 125.463 387.735 125.498 387.803 125.559C387.871 125.62 387.91 125.702 387.91 125.789C387.91 125.875 387.871 125.958 387.803 126.019C387.735 126.08 387.643 126.114 387.547 126.114Z" fill="#C72A47"/>
<path d="M387.547 131.981H384.457C384.361 131.981 384.268 131.947 384.2 131.886C384.132 131.825 384.094 131.742 384.094 131.656C384.094 131.57 384.132 131.487 384.2 131.426C384.268 131.365 384.361 131.331 384.457 131.331H387.547C387.643 131.331 387.735 131.365 387.803 131.426C387.871 131.487 387.91 131.57 387.91 131.656C387.91 131.742 387.871 131.825 387.803 131.886C387.735 131.947 387.643 131.981 387.547 131.981Z" fill="#C72A47"/>
<path d="M387.547 137.85H384.457C384.361 137.85 384.268 137.815 384.2 137.754C384.132 137.693 384.094 137.611 384.094 137.524C384.094 137.438 384.132 137.355 384.2 137.294C384.268 137.233 384.361 137.199 384.457 137.199H387.547C387.643 137.199 387.735 137.233 387.803 137.294C387.871 137.355 387.91 137.438 387.91 137.524C387.91 137.611 387.871 137.693 387.803 137.754C387.735 137.815 387.643 137.85 387.547 137.85Z" fill="#C72A47"/>
<path d="M387.547 143.717H384.457C384.361 143.717 384.268 143.683 384.2 143.622C384.132 143.561 384.094 143.478 384.094 143.392C384.094 143.306 384.132 143.223 384.2 143.162C384.268 143.101 384.361 143.067 384.457 143.067H387.547C387.643 143.067 387.735 143.101 387.803 143.162C387.871 143.223 387.91 143.306 387.91 143.392C387.91 143.478 387.871 143.561 387.803 143.622C387.735 143.683 387.643 143.717 387.547 143.717Z" fill="#C72A47"/>
<path d="M408.131 73.3038H400.69C400.594 73.3038 400.501 73.2696 400.433 73.2086C400.365 73.1476 400.327 73.0648 400.327 72.9786C400.327 72.8923 400.365 72.8096 400.433 72.7486C400.501 72.6876 400.594 72.6533 400.69 72.6533H408.131C408.227 72.6533 408.319 72.6876 408.388 72.7486C408.456 72.8096 408.494 72.8923 408.494 72.9786C408.494 73.0648 408.456 73.1476 408.388 73.2086C408.319 73.2696 408.227 73.3038 408.131 73.3038Z" fill="#292A2E"/>
<path d="M401.602 108.51H393.435C393.339 108.51 393.247 108.476 393.179 108.415C393.111 108.354 393.073 108.271 393.073 108.185C393.073 108.098 393.111 108.016 393.179 107.955C393.247 107.894 393.339 107.859 393.435 107.859H401.602C401.698 107.859 401.79 107.894 401.858 107.955C401.926 108.016 401.965 108.098 401.965 108.185C401.965 108.271 401.926 108.354 401.858 108.415C401.79 108.476 401.698 108.51 401.602 108.51Z" fill="#292A2E"/>
<path d="M408.131 114.377H400.69C400.594 114.377 400.501 114.343 400.433 114.282C400.365 114.221 400.327 114.138 400.327 114.052C400.327 113.966 400.365 113.883 400.433 113.822C400.501 113.761 400.594 113.727 400.69 113.727H408.131C408.227 113.727 408.319 113.761 408.388 113.822C408.456 113.883 408.494 113.966 408.494 114.052C408.494 114.138 408.456 114.221 408.388 114.282C408.319 114.343 408.227 114.377 408.131 114.377Z" fill="#292A2E"/>
<path d="M450.191 79.172H405.764C405.668 79.172 405.576 79.1377 405.508 79.0767C405.44 79.0157 405.401 78.933 405.401 78.8467C405.401 78.7605 405.44 78.6777 405.508 78.6168C405.576 78.5558 405.668 78.5215 405.764 78.5215H450.191C450.287 78.5215 450.379 78.5558 450.447 78.6168C450.515 78.6777 450.554 78.7605 450.554 78.8467C450.554 78.933 450.515 79.0157 450.447 79.0767C450.379 79.1377 450.287 79.172 450.191 79.172Z" fill="#292A2E"/>
<path d="M489.415 79.172H458.043C457.947 79.172 457.854 79.1377 457.786 79.0767C457.718 79.0157 457.68 78.933 457.68 78.8467C457.68 78.7605 457.718 78.6777 457.786 78.6168C457.854 78.5558 457.947 78.5215 458.043 78.5215H489.415C489.512 78.5215 489.604 78.5558 489.672 78.6168C489.74 78.6777 489.778 78.7605 489.778 78.8467C489.778 78.933 489.74 79.0157 489.672 79.0767C489.604 79.1377 489.512 79.172 489.415 79.172Z" fill="#0CBC8B"/>
<path d="M506.253 79.172H496.637C496.54 79.172 496.448 79.1377 496.38 79.0767C496.312 79.0157 496.274 78.933 496.274 78.8467C496.274 78.7605 496.312 78.6777 496.38 78.6168C496.448 78.5558 496.54 78.5215 496.637 78.5215H506.253C506.349 78.5215 506.441 78.5558 506.509 78.6168C506.577 78.6777 506.615 78.7605 506.615 78.8467C506.615 78.933 506.577 79.0157 506.509 79.0767C506.441 79.1377 506.349 79.172 506.253 79.172Z" fill="#292A2E"/>
<path d="M471.947 90.9074H405.764C405.668 90.9074 405.576 90.8731 405.508 90.8121C405.44 90.7511 405.401 90.6684 405.401 90.5821C405.401 90.4958 405.44 90.4131 405.508 90.3521C405.576 90.2911 405.668 90.2568 405.764 90.2568H471.947C472.044 90.2568 472.136 90.2911 472.204 90.3521C472.272 90.4131 472.31 90.4958 472.31 90.5821C472.31 90.6684 472.272 90.7511 472.204 90.8121C472.136 90.8731 472.044 90.9074 471.947 90.9074Z" fill="#292A2E"/>
<path d="M489.415 90.9074H479.799C479.702 90.9074 479.61 90.8731 479.542 90.8121C479.474 90.7511 479.436 90.6684 479.436 90.5821C479.436 90.4958 479.474 90.4131 479.542 90.3521C479.61 90.2911 479.702 90.2568 479.799 90.2568H489.415C489.511 90.2568 489.603 90.2911 489.671 90.3521C489.739 90.4131 489.778 90.4958 489.778 90.5821C489.778 90.6684 489.739 90.7511 489.671 90.8121C489.603 90.8731 489.511 90.9074 489.415 90.9074Z" fill="#C72A47"/>
<path d="M413.931 85.0411H405.764C405.668 85.0411 405.576 85.0069 405.508 84.9459C405.44 84.8849 405.401 84.8021 405.401 84.7159C405.401 84.6296 405.44 84.5469 405.508 84.4859C405.576 84.4249 405.668 84.3906 405.764 84.3906H413.931C414.027 84.3906 414.119 84.4249 414.187 84.4859C414.255 84.5469 414.293 84.6296 414.293 84.7159C414.293 84.8021 414.255 84.8849 414.187 84.9459C414.119 85.0069 414.027 85.0411 413.931 85.0411Z" fill="#0CBC8B"/>
<path d="M467.66 85.0411H421.783C421.687 85.0411 421.595 85.0069 421.527 84.9459C421.459 84.8849 421.42 84.8021 421.42 84.7159C421.42 84.6296 421.459 84.5469 421.527 84.4859C421.595 84.4249 421.687 84.3906 421.783 84.3906H467.66C467.756 84.3906 467.848 84.4249 467.916 84.4859C467.984 84.5469 468.022 84.6296 468.022 84.7159C468.022 84.8021 467.984 84.8849 467.916 84.9459C467.848 85.0069 467.756 85.0411 467.66 85.0411Z" fill="#C72A47"/>
<path d="M506.315 85.0411H476.39C476.294 85.0411 476.202 85.0069 476.134 84.9459C476.066 84.8849 476.028 84.8021 476.028 84.7159C476.028 84.6296 476.066 84.5469 476.134 84.4859C476.202 84.4249 476.294 84.3906 476.39 84.3906H506.313C506.41 84.3906 506.502 84.4249 506.57 84.4859C506.638 84.5469 506.676 84.6296 506.676 84.7159C506.676 84.8021 506.638 84.8849 506.57 84.9459C506.502 85.0069 506.41 85.0411 506.313 85.0411H506.315Z" fill="#292A2E"/>
<path d="M450.191 96.775H405.764C405.668 96.775 405.576 96.7408 405.508 96.6798C405.44 96.6188 405.401 96.536 405.401 96.4498C405.401 96.3635 405.44 96.2808 405.508 96.2198C405.576 96.1588 405.668 96.1245 405.764 96.1245H450.191C450.287 96.1245 450.379 96.1588 450.447 96.2198C450.515 96.2808 450.554 96.3635 450.554 96.4498C450.554 96.536 450.515 96.6188 450.447 96.6798C450.379 96.7408 450.287 96.775 450.191 96.775Z" fill="#292A2E"/>
<path d="M474.911 96.775H458.043C457.947 96.775 457.854 96.7408 457.786 96.6798C457.718 96.6188 457.68 96.536 457.68 96.4498C457.68 96.3635 457.718 96.2808 457.786 96.2198C457.854 96.1588 457.947 96.1245 458.043 96.1245H474.911C475.007 96.1245 475.1 96.1588 475.168 96.2198C475.236 96.2808 475.274 96.3635 475.274 96.4498C475.274 96.536 475.236 96.6188 475.168 96.6798C475.1 96.7408 475.007 96.775 474.911 96.775Z" fill="#0CBC8B"/>
<path d="M506.253 96.775H482.133C482.036 96.775 481.944 96.7408 481.876 96.6798C481.808 96.6188 481.77 96.536 481.77 96.4498C481.77 96.3635 481.808 96.2808 481.876 96.2198C481.944 96.1588 482.036 96.1245 482.133 96.1245H506.253C506.349 96.1245 506.442 96.1588 506.51 96.2198C506.578 96.2808 506.616 96.3635 506.616 96.4498C506.616 96.536 506.578 96.6188 506.51 96.6798C506.442 96.7408 506.349 96.775 506.253 96.775Z" fill="#292A2E"/>
<path d="M413.931 102.642H405.764C405.668 102.642 405.576 102.608 405.508 102.547C405.44 102.486 405.401 102.403 405.401 102.317C405.401 102.231 405.44 102.148 405.508 102.087C405.576 102.026 405.668 101.992 405.764 101.992H413.931C414.027 101.992 414.119 102.026 414.187 102.087C414.255 102.148 414.293 102.231 414.293 102.317C414.293 102.403 414.255 102.486 414.187 102.547C414.119 102.608 414.027 102.642 413.931 102.642Z" fill="#C72A47"/>
<path d="M467.66 102.642H421.783C421.687 102.642 421.595 102.608 421.527 102.547C421.459 102.486 421.42 102.403 421.42 102.317C421.42 102.231 421.459 102.148 421.527 102.087C421.595 102.026 421.687 101.992 421.783 101.992H467.66C467.756 101.992 467.848 102.026 467.916 102.087C467.984 102.148 468.022 102.231 468.022 102.317C468.022 102.403 467.984 102.486 467.916 102.547C467.848 102.608 467.756 102.642 467.66 102.642Z" fill="#0CBC8B"/>
<path d="M448.742 126.114H404.315C404.219 126.114 404.126 126.08 404.058 126.019C403.99 125.958 403.952 125.875 403.952 125.789C403.952 125.702 403.99 125.62 404.058 125.559C404.126 125.498 404.219 125.463 404.315 125.463H448.742C448.838 125.463 448.93 125.498 448.998 125.559C449.066 125.62 449.104 125.702 449.104 125.789C449.104 125.875 449.066 125.958 448.998 126.019C448.93 126.08 448.838 126.114 448.742 126.114Z" fill="#292A2E"/>
<path d="M487.965 126.114H456.592C456.496 126.114 456.404 126.08 456.336 126.019C456.268 125.958 456.229 125.875 456.229 125.789C456.229 125.702 456.268 125.62 456.336 125.559C456.404 125.498 456.496 125.463 456.592 125.463H487.965C488.061 125.463 488.153 125.498 488.221 125.559C488.289 125.62 488.327 125.702 488.327 125.789C488.327 125.875 488.289 125.958 488.221 126.019C488.153 126.08 488.061 126.114 487.965 126.114Z" fill="#C72A47"/>
<path d="M426.986 120.245H404.315C404.219 120.245 404.126 120.211 404.058 120.15C403.99 120.089 403.952 120.006 403.952 119.92C403.952 119.834 403.99 119.751 404.058 119.69C404.126 119.629 404.219 119.595 404.315 119.595H426.986C427.082 119.595 427.174 119.629 427.242 119.69C427.31 119.751 427.348 119.834 427.348 119.92C427.348 120.006 427.31 120.089 427.242 120.15C427.174 120.211 427.082 120.245 426.986 120.245Z" fill="#0CBC8B"/>
<path d="M466.209 120.245H434.836C434.74 120.245 434.648 120.211 434.58 120.15C434.512 120.089 434.474 120.006 434.474 119.92C434.474 119.834 434.512 119.751 434.58 119.69C434.648 119.629 434.74 119.595 434.836 119.595H466.209C466.305 119.595 466.397 119.629 466.465 119.69C466.533 119.751 466.571 119.834 466.571 119.92C466.571 120.006 466.533 120.089 466.465 120.15C466.397 120.211 466.305 120.245 466.209 120.245Z" fill="#C72A47"/>
<path d="M504.865 120.245H474.941C474.845 120.245 474.752 120.211 474.684 120.15C474.616 120.089 474.578 120.006 474.578 119.92C474.578 119.834 474.616 119.751 474.684 119.69C474.752 119.629 474.845 119.595 474.941 119.595H504.864C504.96 119.595 505.052 119.629 505.12 119.69C505.188 119.751 505.226 119.834 505.226 119.92C505.226 120.006 505.188 120.089 505.12 120.15C505.052 120.211 504.96 120.245 504.864 120.245H504.865Z" fill="#292A2E"/>
<path d="M470.498 137.85H404.315C404.219 137.85 404.126 137.815 404.058 137.754C403.99 137.693 403.952 137.611 403.952 137.524C403.952 137.438 403.99 137.355 404.058 137.294C404.126 137.233 404.219 137.199 404.315 137.199H470.498C470.594 137.199 470.687 137.233 470.755 137.294C470.823 137.355 470.861 137.438 470.861 137.524C470.861 137.611 470.823 137.693 470.755 137.754C470.687 137.815 470.594 137.85 470.498 137.85Z" fill="#C72A47"/>
<path d="M487.965 137.85H478.348C478.252 137.85 478.16 137.815 478.092 137.754C478.024 137.693 477.986 137.611 477.986 137.524C477.986 137.438 478.024 137.355 478.092 137.294C478.16 137.233 478.252 137.199 478.348 137.199H487.965C488.061 137.199 488.153 137.233 488.221 137.294C488.289 137.355 488.327 137.438 488.327 137.524C488.327 137.611 488.289 137.693 488.221 137.754C488.153 137.815 488.061 137.85 487.965 137.85Z" fill="#292A2E"/>
<path d="M412.481 131.983H404.315C404.219 131.983 404.126 131.948 404.058 131.887C403.99 131.826 403.952 131.744 403.952 131.657C403.952 131.571 403.99 131.488 404.058 131.427C404.126 131.366 404.219 131.332 404.315 131.332H412.481C412.578 131.332 412.67 131.366 412.738 131.427C412.806 131.488 412.844 131.571 412.844 131.657C412.844 131.744 412.806 131.826 412.738 131.887C412.67 131.948 412.578 131.983 412.481 131.983Z" fill="#C72A47"/>
<path d="M466.209 131.983H420.332C420.236 131.983 420.143 131.948 420.075 131.887C420.007 131.826 419.969 131.744 419.969 131.657C419.969 131.571 420.007 131.488 420.075 131.427C420.143 131.366 420.236 131.332 420.332 131.332H466.209C466.305 131.332 466.397 131.366 466.465 131.427C466.533 131.488 466.571 131.571 466.571 131.657C466.571 131.744 466.533 131.826 466.465 131.887C466.397 131.948 466.305 131.983 466.209 131.983Z" fill="#292A2E"/>
<path d="M504.865 131.983H474.941C474.845 131.983 474.752 131.948 474.684 131.887C474.616 131.826 474.578 131.744 474.578 131.657C474.578 131.571 474.616 131.488 474.684 131.427C474.752 131.366 474.845 131.332 474.941 131.332H504.864C504.96 131.332 505.052 131.366 505.12 131.427C505.188 131.488 505.226 131.571 505.226 131.657C505.226 131.744 505.188 131.826 505.12 131.887C505.052 131.948 504.96 131.983 504.864 131.983H504.865Z" fill="#0CBC8B"/>
<path d="M448.742 143.717H404.315C404.219 143.717 404.126 143.683 404.058 143.622C403.99 143.561 403.952 143.478 403.952 143.392C403.952 143.306 403.99 143.223 404.058 143.162C404.126 143.101 404.219 143.067 404.315 143.067H448.742C448.838 143.067 448.93 143.101 448.998 143.162C449.066 143.223 449.104 143.306 449.104 143.392C449.104 143.478 449.066 143.561 448.998 143.622C448.93 143.683 448.838 143.717 448.742 143.717Z" fill="#0CBC8B"/>
<path d="M473.46 143.717H456.592C456.496 143.717 456.404 143.683 456.336 143.622C456.268 143.561 456.229 143.478 456.229 143.392C456.229 143.306 456.268 143.223 456.336 143.162C456.404 143.101 456.496 143.067 456.592 143.067H473.46C473.557 143.067 473.649 143.101 473.717 143.162C473.785 143.223 473.823 143.306 473.823 143.392C473.823 143.478 473.785 143.561 473.717 143.622C473.649 143.683 473.557 143.717 473.46 143.717Z" fill="#292A2E"/>
<path d="M504.802 143.717H480.681C480.585 143.717 480.493 143.683 480.425 143.622C480.357 143.561 480.319 143.478 480.319 143.392C480.319 143.306 480.357 143.223 480.425 143.162C480.493 143.101 480.585 143.067 480.681 143.067H504.802C504.898 143.067 504.99 143.101 505.058 143.162C505.126 143.223 505.165 143.306 505.165 143.392C505.165 143.478 505.126 143.561 505.058 143.622C504.99 143.683 504.898 143.717 504.802 143.717Z" fill="#C72A47"/>
<path d="M381.012 149.996C380.916 149.996 380.824 149.962 380.756 149.9C380.688 149.84 380.649 149.757 380.649 149.671V57.1934C380.649 57.1072 380.688 57.0244 380.756 56.9634C380.824 56.9024 380.916 56.8682 381.012 56.8682C381.108 56.8682 381.2 56.9024 381.268 56.9634C381.336 57.0244 381.375 57.1072 381.375 57.1934V149.671C381.375 149.757 381.336 149.84 381.268 149.9C381.2 149.962 381.108 149.996 381.012 149.996Z" fill="#292A2E"/>
<path d="M502.453 51.0121C505.666 51.0121 508.271 48.6757 508.271 45.7937C508.271 42.9116 505.666 40.5752 502.453 40.5752C499.24 40.5752 496.636 42.9116 496.636 45.7937C496.636 48.6757 499.24 51.0121 502.453 51.0121Z" fill="white"/>
<path d="M364.428 61.257H348.726C348.63 61.257 348.537 61.2227 348.469 61.1617C348.401 61.1007 348.363 61.018 348.363 60.9317C348.363 60.8454 348.401 60.7627 348.469 60.7017C348.537 60.6407 348.63 60.6064 348.726 60.6064H364.428C364.524 60.6064 364.617 60.6407 364.685 60.7017C364.753 60.7627 364.791 60.8454 364.791 60.9317C364.791 61.018 364.753 61.1007 364.685 61.1617C364.617 61.2227 364.524 61.257 364.428 61.257Z" fill="#292A2E"/>
<path d="M359.698 67.6725H348.726C348.63 67.6725 348.537 67.6382 348.469 67.5772C348.401 67.5162 348.363 67.4335 348.363 67.3472C348.363 67.261 348.401 67.1782 348.469 67.1172C348.537 67.0562 348.63 67.022 348.726 67.022H359.698C359.794 67.022 359.886 67.0562 359.954 67.1172C360.022 67.1782 360.06 67.261 360.06 67.3472C360.06 67.4335 360.022 67.5162 359.954 67.5772C359.886 67.6382 359.794 67.6725 359.698 67.6725Z" fill="#292A2E"/>
<path d="M369.347 74.0875H348.726C348.63 74.0875 348.537 74.0533 348.469 73.9923C348.401 73.9313 348.363 73.8485 348.363 73.7623C348.363 73.676 348.401 73.5933 348.469 73.5323C348.537 73.4713 348.63 73.437 348.726 73.437H369.347C369.443 73.437 369.535 73.4713 369.603 73.5323C369.671 73.5933 369.709 73.676 369.709 73.7623C369.709 73.8485 369.671 73.9313 369.603 73.9923C369.535 74.0533 369.443 74.0875 369.347 74.0875Z" fill="#292A2E"/>
<path d="M373.194 80.5026H355.978C355.882 80.5026 355.789 80.4683 355.721 80.4073C355.653 80.3463 355.615 80.2636 355.615 80.1773C355.615 80.091 355.653 80.0083 355.721 79.9473C355.789 79.8863 355.882 79.8521 355.978 79.8521H373.194C373.29 79.8521 373.383 79.8863 373.451 79.9473C373.519 80.0083 373.557 80.091 373.557 80.1773C373.557 80.2636 373.519 80.3463 373.451 80.4073C373.383 80.4683 373.29 80.5026 373.194 80.5026Z" fill="#292A2E"/>
<path d="M364.869 86.9196H355.978C355.882 86.9196 355.789 86.8853 355.721 86.8243C355.653 86.7633 355.615 86.6806 355.615 86.5943C355.615 86.508 355.653 86.4253 355.721 86.3643C355.789 86.3033 355.882 86.269 355.978 86.269H364.869C364.965 86.269 365.057 86.3033 365.125 86.3643C365.193 86.4253 365.232 86.508 365.232 86.5943C365.232 86.6806 365.193 86.7633 365.125 86.8243C365.057 86.8853 364.965 86.9196 364.869 86.9196Z" fill="#292A2E"/>
<path d="M371.68 93.3346H355.978C355.882 93.3346 355.789 93.3003 355.721 93.2393C355.653 93.1783 355.615 93.0956 355.615 93.0093C355.615 92.9231 355.653 92.8403 355.721 92.7793C355.789 92.7183 355.882 92.6841 355.978 92.6841H371.68C371.776 92.6841 371.868 92.7183 371.936 92.7793C372.004 92.8403 372.043 92.9231 372.043 93.0093C372.043 93.0956 372.004 93.1783 371.936 93.2393C371.868 93.3003 371.776 93.3346 371.68 93.3346Z" fill="#292A2E"/>
<path d="M360.833 99.7506H348.726C348.63 99.7506 348.537 99.7163 348.469 99.6553C348.401 99.5943 348.363 99.5116 348.363 99.4254C348.363 99.3391 348.401 99.2564 348.469 99.1954C348.537 99.1344 348.63 99.1001 348.726 99.1001H360.833C360.929 99.1001 361.022 99.1344 361.09 99.1954C361.158 99.2564 361.196 99.3391 361.196 99.4254C361.196 99.5116 361.158 99.5943 361.09 99.6553C361.022 99.7163 360.929 99.7506 360.833 99.7506Z" fill="#292A2E"/>
<path d="M356.671 106.165H348.726C348.63 106.165 348.537 106.131 348.469 106.07C348.401 106.009 348.363 105.926 348.363 105.84C348.363 105.754 348.401 105.671 348.469 105.61C348.537 105.549 348.63 105.515 348.726 105.515H356.671C356.767 105.515 356.86 105.549 356.928 105.61C356.996 105.671 357.034 105.754 357.034 105.84C357.034 105.926 356.996 106.009 356.928 106.07C356.86 106.131 356.767 106.165 356.671 106.165Z" fill="#292A2E"/>
<path d="M387.052 59.8792V59.9963L391.585 61.5055C391.649 61.5292 391.705 61.5698 391.743 61.622C391.782 61.6741 391.803 61.7356 391.802 61.7983V61.9089C391.803 61.9577 391.791 62.006 391.765 62.0493C391.74 62.0925 391.703 62.1293 391.657 62.1561C391.611 62.1851 391.558 62.2033 391.502 62.209C391.446 62.2147 391.389 62.2077 391.337 62.1886L386.218 60.3932C386.154 60.3703 386.099 60.3308 386.061 60.2798C386.022 60.2288 386.001 60.1686 386 60.1069V59.7752C386 59.7132 386.02 59.6527 386.059 59.6015C386.098 59.5503 386.154 59.5111 386.218 59.4889L391.337 57.687C391.379 57.6742 391.423 57.6676 391.468 57.6675C391.535 57.6687 391.601 57.6868 391.657 57.7195C391.703 57.7477 391.74 57.7856 391.765 57.8299C391.791 57.8742 391.803 57.9235 391.802 57.9732V58.0838C391.804 58.1459 391.784 58.2069 391.745 58.2582C391.706 58.3095 391.65 58.3486 391.585 58.37L387.052 59.8792Z" fill="#C72A47"/>
<path d="M396.038 56.3607L393.326 63.8091C393.304 63.8713 393.26 63.9255 393.202 63.9641C393.143 64.0027 393.072 64.0236 392.999 64.0238C392.947 64.0245 392.895 64.0136 392.848 63.9921C392.801 63.9705 392.761 63.939 392.731 63.9002C392.699 63.8617 392.677 63.817 392.667 63.7696C392.657 63.7222 392.659 63.6734 392.674 63.627L395.385 56.185C395.409 56.1217 395.453 56.0664 395.513 56.0267C395.573 55.9871 395.645 55.9651 395.719 55.9639C395.771 55.9637 395.823 55.9748 395.87 55.9963C395.917 56.0178 395.957 56.0491 395.987 56.0875C396.02 56.1259 396.041 56.1709 396.05 56.2185C396.059 56.2661 396.055 56.3149 396.038 56.3607Z" fill="#C72A47"/>
<path d="M402.698 59.7752V60.1069C402.699 60.1681 402.68 60.2281 402.642 60.2791C402.605 60.3302 402.551 60.3699 402.488 60.3932L397.361 62.1886C397.31 62.2075 397.255 62.2144 397.2 62.2087C397.145 62.203 397.093 62.1849 397.049 62.1561C397.002 62.1296 396.964 62.0931 396.938 62.0499C396.911 62.0067 396.897 61.9582 396.897 61.9089V61.7983C396.896 61.7347 396.917 61.6725 396.957 61.6201C396.998 61.5677 397.055 61.5277 397.121 61.5056L401.654 59.9964V59.8793L397.121 58.3701C397.055 58.3502 396.997 58.3117 396.956 58.2601C396.916 58.2086 396.895 58.1468 396.897 58.0838V57.9732C396.897 57.923 396.911 57.8736 396.937 57.8293C396.964 57.7851 397.002 57.7474 397.049 57.7195C397.105 57.6869 397.17 57.6689 397.237 57.6675C397.28 57.6671 397.321 57.6737 397.361 57.687L402.488 59.4889C402.552 59.5115 402.606 59.5511 402.643 59.6023C402.681 59.6535 402.7 59.7139 402.698 59.7752Z" fill="#C72A47"/>
<path d="M300.165 0H44.7275V229.129H300.165V0Z" fill="#F4F4F4"/>
<path d="M44.728 0H41.8003V229.129H44.728V0Z" fill="#F4F4F4"/>
<path opacity="0.05" d="M44.728 0H41.8003V229.129H44.728V0Z" fill="#292A2E"/>
<path opacity="0.05" d="M106.607 157.889V97.9414H161.352V132.77H246.15V194.437H282.191V229.13H246.15H239.207H57.0142V157.889H106.607Z" fill="#292A2E"/>
<path opacity="0.34" d="M154.326 104.45H114.46V110.959H154.326V104.45Z" fill="#FFFFFA"/>
<path opacity="0.34" d="M154.326 117.938H114.46V124.447H154.326V117.938Z" fill="#FFFFFA"/>
<path opacity="0.34" d="M154.326 131.425H114.46V137.934H154.326V131.425Z" fill="#FFFFFA"/>
<path opacity="0.34" d="M71.4323 164.207H64.0845V170.716H71.4323V164.207Z" fill="#FFFFFA"/>
<path opacity="0.34" d="M71.4323 177.694H64.0845V184.203H71.4323V177.694Z" fill="#FFFFFA"/>
<path opacity="0.34" d="M71.4323 191.183H64.0845V197.692H71.4323V191.183Z" fill="#FFFFFA"/>
<path opacity="0.34" d="M85.0265 164.207H77.6787V170.716H85.0265V164.207Z" fill="#FFFFFA"/>
<path opacity="0.34" d="M85.0265 177.694H77.6787V184.203H85.0265V177.694Z" fill="#FFFFFA"/>
<path opacity="0.34" d="M85.0265 191.183H77.6787V197.692H85.0265V191.183Z" fill="#FFFFFA"/>
<path opacity="0.34" d="M98.2521 164.207H90.9043V170.716H98.2521V164.207Z" fill="#FFFFFA"/>
<path opacity="0.34" d="M98.2521 177.694H90.9043V184.203H98.2521V177.694Z" fill="#FFFFFA"/>
<path opacity="0.34" d="M98.2521 191.183H90.9043V197.692H98.2521V191.183Z" fill="#FFFFFA"/>
<path d="M44.7275 113.279H96.1261V0H100.377V113.279H239.209V0H243.459V113.279H300.165V117.092H243.459V229.129H239.209V117.092H100.377V229.129H96.1261V117.092H44.7275V113.279Z" fill="white"/>
<path d="M310.34 228.853H34.5518V236.473H310.34V228.853Z" fill="#F4F4F4"/>
<path opacity="0.1" d="M310.34 228.853H34.5518V236.473H310.34V228.853Z" fill="#292A2E"/>
<path opacity="0.1" d="M34.552 228.853H30.5698V236.473H34.552V228.853Z" fill="#292A2E"/>
<path opacity="0.1" d="M34.552 228.853H30.5698V236.473H34.552V228.853Z" fill="#292A2E"/>
<path d="M41.7987 9.75586L300.164 9.75586V4.09049L41.7987 4.09049V9.75586Z" fill="white"/>
<path d="M41.7987 20.3379L300.164 20.3379V14.6725L41.7987 14.6725V20.3379Z" fill="white"/>
<path d="M41.7987 30.9209L300.164 30.9209V25.2555L41.7987 25.2555V30.9209Z" fill="white"/>
<path d="M41.7987 41.5024L300.164 41.5024V35.8371L41.7987 35.8371V41.5024Z" fill="white"/>
<path d="M41.7987 52.0835L300.164 52.0835V46.4181L41.7987 46.4181V52.0835Z" fill="white"/>
<path d="M69.2414 58.4741H73.1133L73.1133 0.000938416H69.2414L69.2414 58.4741Z" fill="white"/>
<path d="M70.8497 66.8712C73.7875 66.8712 76.1691 64.7349 76.1691 62.0997C76.1691 59.4644 73.7875 57.3281 70.8497 57.3281C67.9119 57.3281 65.5303 59.4644 65.5303 62.0997C65.5303 64.7349 67.9119 66.8712 70.8497 66.8712Z" fill="white"/>
<path d="M44.0557 547.618L42.6313 547.372L64.8924 348.944L66.3167 349.19L44.0557 547.618Z" fill="#494949"/>
<path d="M126.945 547.618L125.521 547.372L147.781 348.944L149.206 349.19L126.945 547.618Z" fill="#494949"/>
<path d="M310.169 547.618L311.594 547.372L289.333 348.944L287.908 349.19L310.169 547.618Z" fill="#494949"/>
<path d="M227.279 547.618L228.703 547.372L206.443 348.944L205.019 349.19L227.279 547.618Z" fill="#494949"/>
<path d="M197.757 261.615L196.32 261.787L209.324 349.154L210.762 348.982L197.757 261.615Z" fill="#494949"/>
<path d="M48.4919 261.613L47.0542 261.786L60.0586 349.153L61.4963 348.981L48.4919 261.613Z" fill="#494949"/>
<path d="M210.635 342.668H64.6359C60.6967 342.668 57.5034 345.532 57.5034 349.066V349.066C57.5034 352.6 60.6967 355.464 64.6359 355.464H210.635C214.574 355.464 217.768 352.6 217.768 349.066V349.066C217.768 345.532 214.574 342.668 210.635 342.668Z" fill="#292A2E"/>
<path opacity="0.8" d="M210.635 342.668H64.6359C60.6967 342.668 57.5034 345.532 57.5034 349.066V349.066C57.5034 352.6 60.6967 355.464 64.6359 355.464H210.635C214.574 355.464 217.768 352.6 217.768 349.066V349.066C217.768 345.532 214.574 342.668 210.635 342.668Z" fill="white"/>
<path d="M210.636 356.114H64.6374C63.6056 356.114 62.5838 355.932 61.6304 355.578C60.6771 355.224 59.8109 354.704 59.0812 354.05C58.3516 353.395 57.7728 352.618 57.3779 351.763C56.983 350.908 56.7798 349.992 56.7798 349.066C56.7798 348.14 56.983 347.224 57.3779 346.369C57.7728 345.514 58.3516 344.737 59.0812 344.082C59.8109 343.428 60.6771 342.908 61.6304 342.554C62.5838 342.2 63.6056 342.018 64.6374 342.018H210.636C211.668 342.018 212.69 342.2 213.643 342.554C214.596 342.908 215.463 343.428 216.192 344.082C216.922 344.737 217.501 345.514 217.896 346.369C218.29 347.224 218.494 348.14 218.494 349.066C218.494 349.992 218.29 350.908 217.896 351.763C217.501 352.618 216.922 353.395 216.192 354.05C215.463 354.704 214.596 355.224 213.643 355.578C212.69 355.932 211.668 356.114 210.636 356.114ZM64.6374 343.319C63.796 343.319 62.9629 343.467 62.1855 343.756C61.4081 344.045 60.7018 344.468 60.1068 345.002C59.5119 345.536 59.0399 346.169 58.7179 346.867C58.3959 347.564 58.2302 348.311 58.2302 349.066C58.2302 349.821 58.3959 350.568 58.7179 351.265C59.0399 351.963 59.5119 352.596 60.1068 353.13C60.7018 353.664 61.4081 354.087 62.1855 354.376C62.9629 354.665 63.796 354.813 64.6374 354.813H210.636C211.477 354.813 212.311 354.665 213.088 354.376C213.865 354.087 214.572 353.664 215.167 353.13C215.762 352.596 216.234 351.963 216.556 351.265C216.878 350.568 217.043 349.821 217.043 349.066C217.043 348.311 216.878 347.564 216.556 346.867C216.234 346.169 215.762 345.536 215.167 345.002C214.572 344.468 213.865 344.045 213.088 343.756C212.311 343.467 211.477 343.319 210.636 343.319H64.6374Z" fill="#292A2E"/>
<path d="M290.769 342.668H144.77C140.831 342.668 137.637 345.532 137.637 349.066V349.066C137.637 352.6 140.831 355.464 144.77 355.464H290.769C294.708 355.464 297.901 352.6 297.901 349.066V349.066C297.901 345.532 294.708 342.668 290.769 342.668Z" fill="white"/>
<path d="M290.77 356.114H144.77C143.738 356.114 142.717 355.932 141.763 355.578C140.81 355.224 139.944 354.704 139.214 354.05C138.484 353.395 137.906 352.618 137.511 351.763C137.116 350.908 136.913 349.992 136.913 349.066C136.913 348.14 137.116 347.224 137.511 346.369C137.906 345.514 138.484 344.737 139.214 344.082C139.944 343.428 140.81 342.908 141.763 342.554C142.717 342.2 143.738 342.018 144.77 342.018H290.77C291.801 342.018 292.823 342.2 293.777 342.554C294.73 342.908 295.596 343.428 296.326 344.082C297.055 344.737 297.634 345.514 298.029 346.369C298.424 347.224 298.627 348.14 298.627 349.066C298.627 349.992 298.424 350.908 298.029 351.763C297.634 352.618 297.055 353.395 296.326 354.05C295.596 354.704 294.73 355.224 293.777 355.578C292.823 355.932 291.801 356.114 290.77 356.114ZM144.77 343.319C143.929 343.319 143.096 343.467 142.318 343.756C141.541 344.045 140.835 344.468 140.24 345.002C139.645 345.536 139.173 346.169 138.851 346.867C138.529 347.564 138.363 348.311 138.363 349.066C138.363 349.821 138.529 350.568 138.851 351.265C139.173 351.963 139.645 352.596 140.24 353.13C140.835 353.664 141.541 354.087 142.318 354.376C143.096 354.665 143.929 354.813 144.77 354.813H290.77C291.611 354.813 292.444 354.665 293.222 354.376C293.999 354.087 294.705 353.664 295.3 353.13C295.895 352.596 296.367 351.963 296.689 351.265C297.011 350.568 297.177 349.821 297.177 349.066C297.177 348.311 297.011 347.564 296.689 346.867C296.367 346.169 295.895 345.536 295.3 345.002C294.705 344.468 293.999 344.045 293.222 343.756C292.444 343.467 291.611 343.319 290.77 343.319H144.77Z" fill="#292A2E"/>
<path d="M189.759 261.699H48.1636C45.8485 261.698 43.6126 260.943 41.8732 259.572C40.1337 258.202 39.0095 256.311 38.7105 254.251L29.3444 189.734C29.1694 188.528 29.2832 187.302 29.6782 186.138C30.0733 184.975 30.7405 183.9 31.6353 182.986C32.5302 182.073 33.632 181.341 34.8674 180.839C36.1027 180.338 37.4431 180.078 38.799 180.079H180.393C182.708 180.079 184.944 180.834 186.683 182.204C188.423 183.575 189.547 185.466 189.846 187.525L199.211 252.044C199.386 253.25 199.273 254.475 198.878 255.639C198.483 256.802 197.816 257.876 196.921 258.79C196.027 259.704 194.925 260.436 193.69 260.938C192.455 261.439 191.115 261.699 189.759 261.699Z" fill="#292A2E"/>
<path opacity="0.8" d="M189.759 261.699H48.1636C45.8485 261.698 43.6126 260.943 41.8732 259.572C40.1337 258.202 39.0095 256.311 38.7105 254.251L29.3444 189.734C29.1694 188.528 29.2832 187.302 29.6782 186.138C30.0733 184.975 30.7405 183.9 31.6353 182.986C32.5302 182.073 33.632 181.341 34.8674 180.839C36.1027 180.338 37.4431 180.078 38.799 180.079H180.393C182.708 180.079 184.944 180.834 186.683 182.204C188.423 183.575 189.547 185.466 189.846 187.525L199.211 252.044C199.386 253.25 199.273 254.475 198.878 255.639C198.483 256.802 197.816 257.876 196.921 258.79C196.027 259.704 194.925 260.436 193.69 260.938C192.455 261.439 191.115 261.699 189.759 261.699Z" fill="white"/>
<path d="M189.759 262.349H48.164C45.6743 262.344 43.2711 261.529 41.4004 260.055C39.5297 258.581 38.3185 256.549 37.9914 254.335L28.6261 189.817C28.4375 188.519 28.5598 187.2 28.9848 185.948C29.4097 184.696 30.1276 183.54 31.0905 182.556C32.0534 181.573 33.2391 180.785 34.5684 180.246C35.8978 179.706 37.3402 179.427 38.7993 179.427H180.393C182.883 179.432 185.286 180.247 187.156 181.721C189.027 183.195 190.238 185.227 190.565 187.441L199.931 251.959C200.119 253.257 199.997 254.576 199.572 255.828C199.147 257.08 198.429 258.236 197.467 259.219C196.504 260.203 195.318 260.99 193.989 261.53C192.66 262.07 191.218 262.349 189.759 262.349ZM38.7993 180.728C37.5467 180.728 36.3084 180.968 35.1673 181.431C34.0261 181.895 33.0083 182.571 32.1817 183.415C31.3551 184.26 30.7388 185.252 30.3739 186.327C30.009 187.402 29.9039 188.535 30.0656 189.649L39.4317 254.167C39.7123 256.068 40.7521 257.813 42.3583 259.079C43.9644 260.344 46.0278 261.044 48.1654 261.048H189.759C191.012 261.048 192.25 260.808 193.39 260.344C194.531 259.881 195.549 259.204 196.375 258.36C197.202 257.516 197.818 256.523 198.183 255.448C198.547 254.374 198.652 253.241 198.491 252.127L189.127 187.609C188.846 185.709 187.806 183.964 186.2 182.698C184.594 181.433 182.531 180.733 180.393 180.729L38.7993 180.728Z" fill="#292A2E"/>
<path d="M197.765 261.699H56.1697C53.8547 261.698 51.6189 260.943 49.8795 259.572C48.1402 258.202 47.0162 256.311 46.7173 254.251L37.3483 189.734C37.1733 188.528 37.2871 187.302 37.682 186.139C38.077 184.975 38.7441 183.901 39.6388 182.987C40.5334 182.073 41.6351 181.341 42.8703 180.84C44.1054 180.338 45.4456 180.079 46.8014 180.079H188.399C190.714 180.079 192.95 180.834 194.69 182.205C196.429 183.575 197.553 185.466 197.852 187.525L207.218 252.044C207.393 253.25 207.279 254.475 206.884 255.639C206.489 256.802 205.822 257.876 204.928 258.79C204.033 259.704 202.931 260.436 201.696 260.938C200.461 261.439 199.121 261.699 197.765 261.699Z" fill="white"/>
<path d="M197.764 262.349H56.1691C53.6795 262.344 51.2765 261.529 49.4059 260.055C47.5353 258.581 46.3242 256.549 45.9973 254.335L36.6312 189.817C36.4429 188.52 36.5653 187.201 36.9904 185.949C37.4154 184.697 38.1333 183.54 39.096 182.557C40.0588 181.574 41.2443 180.786 42.5734 180.246C43.9026 179.707 45.3448 179.427 46.8038 179.427H188.398C190.888 179.432 193.291 180.247 195.162 181.721C197.032 183.195 198.244 185.227 198.571 187.441L207.937 251.959C208.125 253.257 208.002 254.576 207.577 255.828C207.152 257.08 206.434 258.236 205.472 259.219C204.509 260.202 203.323 260.99 201.994 261.53C200.665 262.07 199.223 262.349 197.764 262.349ZM46.8038 180.728C45.5513 180.729 44.3134 180.969 43.1726 181.432C42.0318 181.896 41.0143 182.573 40.188 183.417C39.3618 184.261 38.7457 185.254 38.381 186.329C38.0163 187.403 37.9113 188.535 38.073 189.65L47.4354 254.167C47.7163 256.068 48.7562 257.813 50.3623 259.078C51.9684 260.344 54.0316 261.043 56.1691 261.048H197.764C199.017 261.048 200.255 260.808 201.396 260.345C202.537 259.881 203.555 259.205 204.382 258.361C205.208 257.516 205.825 256.524 206.19 255.449C206.555 254.374 206.66 253.242 206.498 252.127L197.132 187.609C196.851 185.709 195.811 183.964 194.205 182.698C192.599 181.433 190.536 180.733 188.398 180.729L46.8038 180.728Z" fill="#292A2E"/>
<path d="M307.831 276.428L306.388 276.559L336.961 548.053L338.404 547.922L307.831 276.428Z" fill="#494949"/>
<path d="M182.506 81.03C182.506 81.03 191.915 74.6595 194.246 59.9955C196.051 48.642 184.376 55.9974 184.376 55.9974C184.376 55.9974 185.587 47.8106 178.936 48.6231C172.286 49.4356 168.566 58.0355 168.566 58.0355" fill="#0C0C0C"/>
<path d="M144.569 49.5815C144.569 49.5815 111.575 52.7567 123.503 92.8573L126.423 93.0329L132.349 93.3894" fill="#0C0C0C"/>
<path d="M176.98 134.739C176.835 134.723 175.225 158.679 144.196 156.592C122.715 155.149 115.056 134.706 114.564 134.706C116.88 134.265 119.742 133.594 120.88 133.364C123.359 132.848 125.604 131.667 127.316 129.978C129.028 128.29 130.127 126.173 130.466 123.911C131.094 120.515 130.031 103.141 130.356 99.7051L163.329 106.307C162.869 113.564 159.644 130.387 170.944 133.364C172.827 133.857 174.853 134.309 176.98 134.739Z" fill="#E98862"/>
<path opacity="0.52" d="M163.792 126.488C163.276 124.995 162.943 123.455 162.8 121.897C162.438 118.342 162.511 114.761 163.018 111.22C156.316 110.409 150.002 107.928 144.794 104.059C144.182 106.087 140.815 114.95 141.748 116.877C143.507 120.521 151.786 126.488 163.792 126.488Z" fill="#0C0C0C"/>
<path d="M156.987 121.746C143.978 120.7 128.408 113.327 128.184 97.488L127.981 83.1961C127.757 67.3573 136.849 54.4113 153.475 54.2213C170.101 54.032 182.71 66.7302 182.934 82.5696L183.024 88.8966C183.012 91.0696 182.836 93.2393 182.495 95.3907C181.642 101.083 180.32 109.737 176.014 115.591C171.947 121.117 165.297 122.415 156.987 121.746Z" fill="#E98862"/>
<path d="M163.021 107.27C165.706 107.38 168.381 106.921 170.832 105.932C170.882 105.913 170.928 105.885 170.967 105.849C171.005 105.814 171.036 105.772 171.056 105.727C171.077 105.681 171.087 105.632 171.087 105.582C171.086 105.533 171.075 105.484 171.053 105.439C171.031 105.393 171 105.352 170.961 105.317C170.921 105.283 170.875 105.256 170.824 105.237C170.772 105.219 170.718 105.209 170.663 105.21C170.608 105.211 170.553 105.221 170.503 105.24C165.223 107.26 160.429 106.964 156.639 104.385C156.562 104.33 156.483 104.28 156.4 104.233C156.305 104.194 156.197 104.187 156.097 104.216C155.996 104.244 155.912 104.306 155.86 104.387C155.807 104.469 155.791 104.565 155.814 104.657C155.837 104.749 155.897 104.83 155.983 104.884C156.014 104.901 156.062 104.935 156.128 104.983C158.121 106.344 160.521 107.14 163.021 107.27Z" fill="#0C0C0C"/>
<path d="M162.897 110.836C163.382 110.863 163.869 110.853 164.352 110.805C164.463 110.795 164.564 110.745 164.634 110.668C164.704 110.59 164.736 110.491 164.725 110.392C164.713 110.292 164.658 110.201 164.571 110.139C164.485 110.076 164.374 110.047 164.264 110.057C161.358 110.334 159.971 109.14 159.912 109.089C159.834 109.018 159.727 108.978 159.616 108.978C159.505 108.978 159.398 109.017 159.319 109.088C159.24 109.158 159.196 109.254 159.196 109.354C159.196 109.454 159.24 109.549 159.318 109.62C160.319 110.384 161.583 110.814 162.897 110.836Z" fill="#0C0C0C"/>
<path d="M177.444 91.9432C178.575 91.9432 179.492 91.1207 179.492 90.1061C179.492 89.0915 178.575 88.269 177.444 88.269C176.312 88.269 175.396 89.0915 175.396 90.1061C175.396 91.1207 176.312 91.9432 177.444 91.9432Z" fill="#0C0C0C"/>
<path d="M157.436 90.8167C158.567 90.8167 159.484 89.9942 159.484 88.9796C159.484 87.9651 158.567 87.1426 157.436 87.1426C156.305 87.1426 155.388 87.9651 155.388 88.9796C155.388 89.9942 156.305 90.8167 157.436 90.8167Z" fill="#0C0C0C"/>
<path d="M129.285 102.302C124.232 102.359 120.068 97.5574 120.002 93.0252C119.936 88.493 123.998 85.9469 129.051 85.8896L131.697 88.8964L133.628 102.252L129.285 102.302Z" fill="#E98862"/>
<path d="M134.309 95.0201C134.309 95.0201 136.015 72.6078 143.592 71.2235C148.638 70.3017 160.874 76.7223 172.208 74.7831C177.167 73.9375 181.874 75.0355 182.353 77.1367C182.542 77.9687 185.631 66.0128 177.867 56.942C171.684 49.718 151.452 47.6786 142.248 50.0465C116.762 56.605 128.008 86.8769 128.008 86.8769L129.145 94.6038L134.309 95.0201Z" fill="#0C0C0C"/>
<path d="M166.073 101.98H166.106C167.734 101.965 170.463 101.777 170.452 100.685C170.441 99.7791 167.569 90.0324 167.241 88.9239C167.209 88.8318 167.139 88.7543 167.046 88.7075C166.952 88.6608 166.842 88.6484 166.738 88.6731C166.634 88.6977 166.545 88.7575 166.489 88.8398C166.434 88.9221 166.416 89.0206 166.439 89.1145C167.715 93.4313 169.615 100.077 169.623 100.694C169.466 100.954 167.784 101.222 166.098 101.238C165.992 101.24 165.89 101.278 165.815 101.345C165.739 101.413 165.695 101.503 165.692 101.598C165.689 101.694 165.727 101.787 165.798 101.858C165.869 101.929 165.967 101.973 166.073 101.98V101.98Z" fill="#0C0C0C"/>
<path d="M171.631 80.144C173.342 79.7215 175.149 79.7215 176.86 80.144C177.7 80.3466 178.502 80.6616 179.238 81.0782C179.966 81.486 180.634 81.9747 181.225 82.5327C181.338 82.6312 181.404 82.7655 181.408 82.9069C181.412 83.0484 181.355 83.1857 181.247 83.2894C181.14 83.3932 180.992 83.4551 180.834 83.462C180.677 83.4689 180.522 83.4202 180.404 83.3263L180.367 83.2977C179.82 82.8432 179.211 82.4522 178.554 82.134C177.91 81.8176 177.217 81.5904 176.497 81.46C175.08 81.1935 173.61 81.2673 172.235 81.674L172.177 81.6922C171.95 81.7642 171.701 81.7523 171.484 81.6593C171.266 81.5663 171.099 81.3997 171.019 81.1962C170.939 80.9927 170.952 80.769 171.056 80.5742C171.16 80.3795 171.345 80.2296 171.572 80.1577L171.631 80.144Z" fill="#0C0C0C"/>
<path d="M159.514 81.0668C158.212 80.4992 156.766 80.2504 155.322 80.3454C154.589 80.3881 153.868 80.5302 153.183 80.7669C152.486 81.0042 151.825 81.3189 151.216 81.7037L151.177 81.7271C151.046 81.8023 150.888 81.8294 150.735 81.8028C150.583 81.7761 150.448 81.6978 150.358 81.5841C150.268 81.4704 150.23 81.33 150.253 81.1921C150.276 81.0542 150.357 80.9294 150.479 80.8437C151.148 80.3612 151.882 79.9564 152.664 79.6389C153.456 79.3146 154.297 79.0984 155.16 78.9975C156.919 78.7824 158.71 78.9977 160.343 79.6207C160.565 79.707 160.738 79.8685 160.827 80.0698C160.915 80.2711 160.911 80.4956 160.815 80.6941C160.719 80.8925 160.538 81.0485 160.314 81.1278C160.09 81.2071 159.839 81.2032 159.618 81.1169L159.568 81.0954L159.514 81.0668Z" fill="#0C0C0C"/>
<path d="M169.196 64.7164C172.935 64.0155 175.035 59.4446 173.885 54.5071C172.735 49.5695 168.771 46.135 165.031 46.8359C161.291 47.5368 159.192 52.1077 160.342 57.0452C161.492 61.9828 165.456 65.4173 169.196 64.7164Z" fill="#0C0C0C"/>
<path d="M377.776 513.74C377.776 513.74 381.665 531.82 400.536 532.828C419.408 533.835 415.316 547.321 415.316 547.321H343.198V515.001L377.776 513.74Z" fill="#C72A47"/>
<path d="M240.575 502.325C240.575 502.325 235.168 520.089 251.606 528.465C268.044 536.841 257.735 547.322 257.735 547.322L193.023 518.764L208.928 489.763L240.575 502.325Z" fill="#C72A47"/>
<path d="M200.496 497.308L255.067 342.881H156.149C136.278 342.881 127.995 327.766 127.995 309.943C127.995 292.12 147.529 276.496 167.398 276.496H300.902C313.021 276.496 326.61 283.144 333.262 292.232C339.913 301.32 338.115 315.402 333.296 325.377L245.908 515.761" fill="#262626"/>
<path opacity="0.8" d="M200.496 497.308L255.067 342.881H156.149C136.278 342.881 127.995 327.766 127.995 309.943C127.995 292.12 147.529 276.496 167.398 276.496H300.902C313.021 276.496 326.61 283.144 333.262 292.232C339.913 301.32 338.115 315.402 333.296 325.377L245.908 515.761" fill="#0A0A0A"/>
<path d="M339.052 530.531L247.804 342.881L127.993 342.874C99.9196 340.9 87.0623 327.099 87.4714 309.28C87.8746 291.687 97.8056 274.31 117.33 274.31H278.814C293.261 274.576 304.626 288.896 309.985 300.932L385.842 519.043" fill="#262626"/>
<path d="M79.3004 274.525C79.3004 274.525 73.9796 305.65 82.4138 322.954C92.9431 344.558 132.415 342.874 132.415 342.874L130.191 274.31L79.3004 274.525Z" fill="#262626"/>
<path d="M313.419 273.913L228.787 258.182C225.26 257.526 221.975 256.083 219.235 253.987C216.495 251.89 214.389 249.208 213.111 246.187L179.824 167.505C178.81 165.144 178.327 162.626 178.401 160.097C178.475 157.567 179.106 155.076 180.257 152.766C181.408 150.455 183.057 148.372 185.108 146.635C187.159 144.898 189.573 143.542 192.21 142.644C194.848 141.746 197.657 141.324 200.476 141.403C203.296 141.482 206.07 142.06 208.64 143.104C211.21 144.147 213.524 145.636 215.451 147.484C217.378 149.333 218.878 151.504 219.866 153.874L248.985 222.699L322.111 236.291C322.111 236.291 314.887 274.185 313.419 273.913Z" fill="#C72A47"/>
<path d="M215.533 187.485C214.556 197.785 207.628 262.041 206.685 274.728H79.3557C78.624 263.286 76.2489 214.707 73.4743 192.332C70.8265 170.981 69.8656 158.797 72.9158 152.162C78.2955 140.459 91.7575 136.249 103.354 134.84C110.434 133.981 121.084 133.364 121.084 133.364C121.084 133.364 121.986 149.727 143.487 150.637C172.756 151.873 170.801 133.364 170.946 133.364C175.688 133.364 201.498 136.457 207.951 140.23C217.067 145.56 219.761 152.823 219.867 159.495C219.99 167.178 216.641 175.805 215.533 187.485Z" fill="#C72A47"/>
<path d="M210.529 239.99H210.498C210.451 239.986 210.404 239.974 210.362 239.955C210.32 239.935 210.282 239.908 210.251 239.876C210.221 239.843 210.197 239.805 210.183 239.765C210.168 239.724 210.163 239.681 210.167 239.638L213.472 204.02C213.475 203.977 213.487 203.935 213.509 203.896C213.53 203.858 213.56 203.824 213.597 203.796C213.633 203.768 213.676 203.747 213.721 203.735C213.767 203.722 213.816 203.718 213.863 203.723C213.911 203.726 213.957 203.738 213.999 203.758C214.042 203.777 214.079 203.804 214.11 203.837C214.141 203.869 214.164 203.907 214.179 203.948C214.193 203.988 214.199 204.031 214.195 204.074L210.889 239.692C210.881 239.773 210.84 239.849 210.773 239.904C210.707 239.959 210.619 239.989 210.529 239.99Z" fill="#0C0C0C"/>
<path d="M271.17 261.367L299.108 184.33C299.598 182.977 300.554 181.797 301.839 180.96C303.123 180.124 304.669 179.673 306.256 179.673H427.331C428.518 179.673 429.688 179.925 430.745 180.408C431.802 180.892 432.717 181.593 433.414 182.454C434.111 183.315 434.571 184.312 434.756 185.363C434.942 186.414 434.847 187.49 434.48 188.502L399.29 265.542C398.799 266.896 397.843 268.075 396.559 268.912C395.275 269.748 393.728 270.199 392.141 270.199H278.318C277.131 270.199 275.961 269.947 274.904 269.464C273.846 268.98 272.931 268.279 272.234 267.418C271.537 266.556 271.077 265.559 270.892 264.507C270.707 263.456 270.802 262.38 271.17 261.367Z" fill="#292A2E"/>
<path d="M271.17 261.367L299.108 184.33C299.598 182.977 300.554 181.797 301.839 180.96C303.123 180.124 304.669 179.673 306.256 179.673H427.331C428.518 179.673 429.688 179.925 430.745 180.408C431.802 180.892 432.717 181.593 433.414 182.454C434.111 183.315 434.571 184.312 434.756 185.363C434.942 186.414 434.847 187.49 434.48 188.502L399.29 265.542C398.799 266.896 397.843 268.075 396.559 268.912C395.275 269.748 393.728 270.199 392.141 270.199H278.318C277.131 270.199 275.961 269.947 274.904 269.464C273.846 268.98 272.931 268.279 272.234 267.418C271.537 266.556 271.077 265.559 270.892 264.507C270.707 263.456 270.802 262.38 271.17 261.367Z" fill="#292A2E"/>
<path d="M293.96 263.95H217.767C215.868 263.95 214.329 265.33 214.329 267.033V267.113C214.329 268.815 215.868 270.196 217.767 270.196H293.96C295.859 270.196 297.398 268.815 297.398 267.113V267.033C297.398 265.33 295.859 263.95 293.96 263.95Z" fill="#292A2E"/>
<path d="M293.96 263.95H217.767C215.868 263.95 214.329 265.33 214.329 267.033V267.113C214.329 268.815 215.868 270.196 217.767 270.196H293.96C295.859 270.196 297.398 268.815 297.398 267.113V267.033C297.398 265.33 295.859 263.95 293.96 263.95Z" fill="#292A2E"/>
<path d="M349.199 239.402C355.792 239.402 361.137 234.608 361.137 228.694C361.137 222.78 355.792 217.985 349.199 217.985C342.606 217.985 337.261 222.78 337.261 228.694C337.261 234.608 342.606 239.402 349.199 239.402Z" fill="white"/>
<path d="M264.801 243.321L245.785 237.343L248.515 237.173C249.395 237.103 250.212 236.736 250.802 236.145C251.392 235.555 251.71 234.786 251.691 233.994C251.666 233.585 251.548 233.185 251.345 232.819C251.142 232.453 250.858 232.127 250.51 231.863C250.162 231.598 249.757 231.4 249.321 231.28C248.885 231.16 248.426 231.121 247.972 231.166L214.329 234.373L215.199 244.071C215.471 247.083 216.739 249.954 218.841 252.315C220.943 254.676 223.784 256.421 226.999 257.325L241.568 261.395C242.32 261.62 243.136 261.605 243.878 261.352C244.619 261.099 245.24 260.624 245.636 260.008C245.98 259.444 246.114 258.797 246.019 258.16C245.924 257.524 245.605 256.931 245.108 256.468C245.14 256.448 245.167 256.422 245.188 256.391C245.208 256.361 245.222 256.328 245.227 256.292C245.233 256.257 245.23 256.222 245.22 256.187C245.209 256.153 245.191 256.121 245.166 256.094L247.85 256.849C248.687 257.101 249.6 257.059 250.404 256.731C251.208 256.402 251.843 255.812 252.181 255.08C252.457 254.415 252.463 253.685 252.197 253.017C251.932 252.35 251.412 251.787 250.73 251.43C250.762 251.414 250.79 251.394 250.813 251.37L251.917 251.68C252.669 251.905 253.485 251.889 254.227 251.636C254.968 251.383 255.589 250.908 255.984 250.292C256.402 249.609 256.508 248.807 256.28 248.055C256.053 247.303 255.511 246.659 254.766 246.259C254.772 246.239 254.776 246.218 254.776 246.197L262.696 248.687C263.089 248.815 263.507 248.871 263.926 248.853C264.344 248.835 264.754 248.743 265.132 248.582C265.51 248.421 265.849 248.194 266.129 247.915C266.409 247.635 266.624 247.309 266.763 246.955C266.901 246.6 266.96 246.225 266.936 245.85C266.911 245.475 266.804 245.108 266.621 244.77C266.438 244.433 266.181 244.131 265.867 243.883C265.553 243.635 265.187 243.445 264.791 243.324L264.801 243.321Z" fill="#E98862"/>
<path opacity="0.2" d="M254.476 246.472C254.439 246.471 254.403 246.466 254.368 246.455L246.708 243.956C246.629 243.93 246.565 243.877 246.53 243.809C246.495 243.741 246.491 243.663 246.52 243.593C246.549 243.522 246.608 243.465 246.684 243.433C246.76 243.401 246.847 243.398 246.926 243.424L254.586 245.923C254.656 245.945 254.715 245.989 254.752 246.047C254.789 246.105 254.802 246.172 254.789 246.238C254.776 246.304 254.738 246.363 254.681 246.406C254.624 246.449 254.552 246.472 254.478 246.472H254.476Z" fill="#0A0A0A"/>
<path opacity="0.2" d="M250.604 251.468C250.568 251.468 250.532 251.463 250.498 251.452L244.46 249.53C244.42 249.519 244.383 249.5 244.352 249.475C244.32 249.45 244.294 249.42 244.276 249.386C244.257 249.353 244.246 249.316 244.244 249.278C244.241 249.24 244.247 249.203 244.261 249.167C244.275 249.132 244.297 249.099 244.325 249.071C244.354 249.043 244.388 249.021 244.426 249.005C244.464 248.989 244.505 248.98 244.547 248.979C244.589 248.977 244.631 248.984 244.671 248.997L250.709 250.919C250.779 250.941 250.838 250.985 250.875 251.042C250.913 251.1 250.927 251.167 250.914 251.233C250.902 251.299 250.864 251.359 250.807 251.402C250.75 251.445 250.678 251.468 250.604 251.468Z" fill="#0A0A0A"/>
<path opacity="0.2" d="M244.917 256.536C244.879 256.536 244.841 256.53 244.805 256.517L241.976 255.55C241.898 255.523 241.835 255.47 241.801 255.401C241.767 255.332 241.764 255.255 241.794 255.184C241.824 255.114 241.884 255.058 241.96 255.027C242.037 254.996 242.124 254.994 242.202 255.021L245.03 255.988C245.099 256.012 245.157 256.056 245.194 256.114C245.23 256.172 245.242 256.239 245.229 256.304C245.216 256.37 245.177 256.429 245.12 256.471C245.063 256.513 244.992 256.536 244.918 256.536H244.917Z" fill="#0A0A0A"/>
<path d="M229.22 228.633L149.447 228.585L119.268 162.55L74.248 179.528L111.9 257.902L112.267 258.683C114.109 262.492 117.212 265.702 121.156 267.877C125.099 270.051 129.692 271.087 134.314 270.842L230.424 265.749L229.22 228.633Z" fill="#C72A47"/>
<path d="M132.993 271.201C128.521 271.194 124.148 270.019 120.408 267.818C116.669 265.618 113.725 262.488 111.936 258.811L111.568 258.031L79.4824 191.252L80.1482 190.992L112.601 258.556C114.422 262.298 117.477 265.45 121.355 267.588C125.233 269.727 129.748 270.749 134.292 270.517L230.051 265.443L228.865 228.96L149.202 228.911L125.995 178.137L126.667 177.891L149.687 228.261L229.569 228.31L230.797 266.055L230.445 266.074L134.337 271.165C133.888 271.189 133.438 271.201 132.993 271.201Z" fill="#0C0C0C"/>
<path d="M44.2645 276.433L13.6704 547.925L15.1135 548.056L45.7075 276.564L44.2645 276.433Z" fill="#494949"/>
<path d="M170.668 276.432L140.074 547.923L141.517 548.054L172.111 276.563L170.668 276.432Z" fill="#494949"/>
<path d="M434.233 276.428L432.79 276.559L463.363 548.053L464.806 547.922L434.233 276.428Z" fill="#494949"/>
<path d="M461.802 271.166H18.6968C15.4149 271.166 12.7544 273.552 12.7544 276.496C12.7544 279.44 15.4149 281.826 18.6968 281.826H461.802C465.084 281.826 467.745 279.44 467.745 276.496C467.745 273.552 465.084 271.166 461.802 271.166Z" fill="#292A2E"/>
<path opacity="0.8" d="M461.802 271.166H18.6968C15.4149 271.166 12.7544 273.552 12.7544 276.496C12.7544 279.44 15.4149 281.826 18.6968 281.826H461.802C465.084 281.826 467.745 279.44 467.745 276.496C467.745 273.552 465.084 271.166 461.802 271.166Z" fill="white"/>
<path d="M461.803 282.475H18.7C17.8186 282.483 16.9441 282.335 16.1272 282.038C15.3102 281.741 14.567 281.302 13.9404 280.746C13.3139 280.189 12.8165 279.527 12.4771 278.798C12.1377 278.068 11.9629 277.285 11.9629 276.495C11.9629 275.704 12.1377 274.921 12.4771 274.191C12.8165 273.462 13.3139 272.8 13.9404 272.243C14.567 271.687 15.3102 271.248 16.1272 270.951C16.9441 270.654 17.8186 270.506 18.7 270.514H461.803C462.685 270.506 463.559 270.654 464.376 270.951C465.193 271.248 465.937 271.687 466.563 272.243C467.19 272.8 467.687 273.462 468.026 274.191C468.366 274.921 468.541 275.704 468.541 276.495C468.541 277.285 468.366 278.068 468.026 278.798C467.687 279.527 467.19 280.189 466.563 280.746C465.937 281.302 465.193 281.741 464.376 282.038C463.559 282.335 462.685 282.483 461.803 282.475ZM18.7 271.815C18.0098 271.808 17.3247 271.923 16.6847 272.155C16.0446 272.387 15.4622 272.731 14.9712 273.166C14.4802 273.601 14.0904 274.12 13.8244 274.691C13.5583 275.262 13.4213 275.875 13.4213 276.495C13.4213 277.114 13.5583 277.727 13.8244 278.298C14.0904 278.87 14.4802 279.388 14.9712 279.823C15.4622 280.258 16.0446 280.602 16.6847 280.834C17.3247 281.066 18.0098 281.181 18.7 281.174H461.803C462.494 281.181 463.179 281.066 463.819 280.834C464.459 280.602 465.041 280.258 465.532 279.823C466.023 279.388 466.413 278.87 466.679 278.298C466.945 277.727 467.082 277.114 467.082 276.495C467.082 275.875 466.945 275.262 466.679 274.691C466.413 274.12 466.023 273.601 465.532 273.166C465.041 272.731 464.459 272.387 463.819 272.155C463.179 271.923 462.494 271.808 461.803 271.815H18.7Z" fill="#292A2E"/>
<path d="M461.803 271.166H149.932C146.65 271.166 143.99 273.552 143.99 276.496C143.99 279.44 146.65 281.826 149.932 281.826H461.803C465.085 281.826 467.745 279.44 467.745 276.496C467.745 273.552 465.085 271.166 461.803 271.166Z" fill="white"/>
<path d="M461.804 282.475H149.933C148.176 282.459 146.498 281.821 145.263 280.702C144.027 279.582 143.334 278.07 143.334 276.495C143.334 274.919 144.027 273.407 145.263 272.288C146.498 271.168 148.176 270.53 149.933 270.514H461.804C462.685 270.506 463.56 270.654 464.377 270.951C465.194 271.248 465.937 271.687 466.564 272.243C467.19 272.8 467.688 273.462 468.027 274.191C468.366 274.921 468.541 275.704 468.541 276.495C468.541 277.285 468.366 278.068 468.027 278.798C467.688 279.527 467.19 280.189 466.564 280.746C465.937 281.302 465.194 281.741 464.377 282.038C463.56 282.335 462.685 282.483 461.804 282.475ZM149.933 271.815C148.56 271.83 147.248 272.329 146.283 273.205C145.318 274.081 144.777 275.263 144.777 276.495C144.777 277.726 145.318 278.908 146.283 279.784C147.248 280.66 148.56 281.16 149.933 281.174H461.804C462.494 281.181 463.179 281.066 463.819 280.834C464.46 280.602 465.042 280.258 465.533 279.823C466.024 279.388 466.414 278.87 466.68 278.298C466.946 277.727 467.083 277.114 467.083 276.495C467.083 275.875 466.946 275.262 466.68 274.691C466.414 274.12 466.024 273.601 465.533 273.166C465.042 272.731 464.46 272.387 463.819 272.155C463.179 271.923 462.494 271.808 461.804 271.815H149.933Z" fill="#292A2E"/>
<path d="M473.755 461.504C473.659 461.504 473.565 461.488 473.477 461.455C473.389 461.422 473.309 461.374 473.242 461.313C472.22 460.398 470.554 443.582 466.068 393.514C464.233 373.028 462.499 353.678 461.233 341.919C461.143 341.079 460.78 340.981 460.661 340.949C458.928 340.48 453.661 344.206 450.72 347.469C450.599 347.603 450.424 347.689 450.233 347.707C450.041 347.725 449.85 347.674 449.7 347.566C449.55 347.457 449.455 347.3 449.435 347.128C449.414 346.957 449.471 346.785 449.592 346.65C451.537 344.493 457.875 338.838 461.078 339.703C461.723 339.877 462.528 340.381 462.677 341.794C463.944 353.564 465.678 372.919 467.514 393.41C470.24 423.835 473.328 458.304 474.343 460.474C474.421 460.571 474.468 460.686 474.477 460.805C474.487 460.925 474.46 461.044 474.399 461.15C474.339 461.257 474.246 461.346 474.132 461.409C474.019 461.471 473.888 461.504 473.755 461.504Z" fill="#494949"/>
<path d="M459.37 363.498C471.404 354.845 475.392 341.377 468.279 333.416C461.165 325.456 445.642 326.017 433.608 334.669C421.574 343.322 417.586 356.79 424.7 364.751C431.813 372.711 447.336 372.15 459.37 363.498Z" fill="#0CBC8B"/>
<path opacity="0.2" d="M459.37 363.498C471.404 354.845 475.392 341.377 468.279 333.416C461.165 325.456 445.642 326.017 433.608 334.669C421.574 343.322 417.586 356.79 424.7 364.751C431.813 372.711 447.336 372.15 459.37 363.498Z" fill="white"/>
<path d="M428.073 366.776C428.004 366.776 427.936 366.758 427.878 366.725C427.82 366.692 427.774 366.645 427.744 366.589C427.715 366.533 427.704 366.471 427.713 366.409C427.722 366.348 427.749 366.29 427.793 366.243L462.089 329.144C462.151 329.078 462.239 329.036 462.335 329.028C462.431 329.02 462.526 329.047 462.6 329.102C462.674 329.157 462.721 329.236 462.73 329.322C462.739 329.408 462.709 329.494 462.648 329.56L428.352 366.659C428.318 366.695 428.275 366.725 428.227 366.745C428.178 366.765 428.126 366.776 428.073 366.776Z" fill="white"/>
<path d="M481.235 453.551C481.119 453.551 481.005 453.526 480.902 453.478C480.799 453.431 480.711 453.362 480.644 453.277C480.577 453.192 480.533 453.095 480.517 452.992C480.501 452.889 480.512 452.784 480.55 452.686L493.434 419.454C493.813 418.478 494.459 417.602 495.313 416.908C496.168 416.214 497.202 415.723 498.323 415.48C499.443 415.238 500.614 415.251 501.727 415.519C502.84 415.788 503.86 416.302 504.695 417.016L511.506 422.852C511.645 422.971 511.726 423.135 511.73 423.307C511.734 423.48 511.662 423.647 511.529 423.772C511.396 423.897 511.214 423.969 511.021 423.973C510.829 423.977 510.643 423.912 510.503 423.793L503.693 417.956C503.035 417.393 502.229 416.987 501.35 416.775C500.471 416.563 499.547 416.553 498.663 416.744C497.778 416.936 496.961 417.323 496.287 417.871C495.612 418.419 495.102 419.11 494.803 419.881L481.921 453.114C481.871 453.242 481.778 453.353 481.656 453.431C481.533 453.509 481.385 453.551 481.235 453.551Z" fill="#494949"/>
<path d="M530.533 441.252C539.451 434.92 538.921 420.993 529.349 410.145C519.777 399.298 504.788 395.638 495.869 401.97C486.951 408.302 487.481 422.229 497.053 433.076C506.625 443.924 521.615 447.584 530.533 441.252Z" fill="#0CBC8B"/>
<path d="M467.907 459.385C467.744 459.385 467.586 459.336 467.458 459.245C467.33 459.155 467.24 459.028 467.202 458.886L445.579 377.802C445.431 377.25 445.116 376.744 444.669 376.342C444.222 375.939 443.659 375.655 443.044 375.521C442.428 375.386 441.783 375.407 441.18 375.58C440.577 375.753 440.038 376.071 439.623 376.501L432.959 383.41C432.897 383.475 432.821 383.529 432.735 383.568C432.65 383.607 432.557 383.631 432.461 383.637C432.366 383.644 432.27 383.633 432.179 383.606C432.088 383.58 432.004 383.537 431.931 383.48C431.859 383.424 431.799 383.356 431.757 383.279C431.714 383.202 431.689 383.118 431.682 383.032C431.676 382.946 431.688 382.86 431.719 382.779C431.75 382.698 431.799 382.623 431.862 382.558L438.526 375.65C439.116 375.039 439.881 374.586 440.739 374.34C441.597 374.095 442.514 374.066 443.389 374.258C444.264 374.449 445.063 374.853 445.698 375.426C446.334 375.998 446.781 376.717 446.99 377.503L468.609 458.586C468.652 458.753 468.62 458.93 468.52 459.076C468.419 459.222 468.258 459.327 468.072 459.367C468.018 459.379 467.962 459.385 467.907 459.385Z" fill="#494949"/>
<path d="M459.927 401.423C462.555 387.79 455.6 375.33 444.392 373.592C433.185 371.853 421.969 381.495 419.341 395.127C416.712 408.759 423.668 421.219 434.875 422.958C446.083 424.696 457.299 415.055 459.927 401.423Z" fill="#0CBC8B"/>
<path d="M473.755 461.505C473.725 461.505 473.696 461.503 473.666 461.5C473.571 461.49 473.48 461.463 473.397 461.421C473.314 461.379 473.241 461.322 473.183 461.255C473.124 461.188 473.081 461.11 473.055 461.028C473.03 460.946 473.023 460.86 473.034 460.775L486.839 360.233C486.99 359.137 487.49 358.104 488.279 357.258C489.068 356.411 490.113 355.787 491.288 355.461C492.463 355.134 493.719 355.119 494.903 355.417C496.088 355.715 497.151 356.314 497.966 357.141L513.745 373.171C513.872 373.301 513.937 373.47 513.925 373.643C513.913 373.815 513.825 373.976 513.681 374.09C513.537 374.204 513.348 374.262 513.156 374.252C512.964 374.241 512.784 374.162 512.657 374.033L496.878 358.002C496.248 357.363 495.427 356.9 494.511 356.669C493.596 356.439 492.625 356.451 491.717 356.703C490.809 356.956 490.001 357.438 489.391 358.092C488.781 358.746 488.395 359.545 488.279 360.391L474.475 460.934C474.453 461.091 474.368 461.236 474.235 461.341C474.103 461.447 473.932 461.505 473.755 461.505Z" fill="#494949"/>
<path d="M529.93 382.079C535.435 373.152 528.957 360.486 515.462 353.789C501.966 347.093 486.562 348.902 481.057 357.83C475.551 366.758 482.029 379.424 495.525 386.12C509.021 392.816 524.424 391.007 529.93 382.079Z" fill="#0CBC8B"/>
<path opacity="0.2" d="M530.533 441.252C539.451 434.92 538.921 420.993 529.349 410.145C519.777 399.298 504.788 395.638 495.869 401.97C486.951 408.302 487.481 422.229 497.053 433.076C506.625 443.924 521.615 447.584 530.533 441.252Z" fill="white"/>
<path opacity="0.5" d="M459.927 401.423C462.555 387.79 455.6 375.33 444.392 373.592C433.185 371.853 421.969 381.495 419.341 395.127C416.712 408.759 423.668 421.219 434.875 422.958C446.083 424.696 457.299 415.055 459.927 401.423Z" fill="white"/>
<path opacity="0.5" d="M529.93 382.079C535.435 373.152 528.957 360.486 515.462 353.789C501.966 347.093 486.562 348.902 481.057 357.83C475.551 366.758 482.029 379.424 495.525 386.12C509.021 392.816 524.424 391.007 529.93 382.079Z" fill="white"/>
<path d="M491.411 546.813H456.096L450.244 445.46H497.263L491.411 546.813Z" fill="#292A2E"/>
<path opacity="0.3" d="M491.411 546.813H456.096L450.244 445.46H497.263L491.411 546.813Z" fill="white"/>
<path d="M530.532 441.573C530.477 441.573 530.423 441.562 530.374 441.54C530.325 441.519 530.282 441.488 530.248 441.449L495.583 402.167C495.523 402.099 495.496 402.013 495.507 401.927C495.518 401.842 495.567 401.764 495.642 401.71C495.717 401.656 495.813 401.632 495.909 401.642C496.004 401.652 496.092 401.695 496.151 401.763L530.816 441.045C530.859 441.093 530.885 441.151 530.893 441.212C530.9 441.272 530.889 441.334 530.859 441.389C530.829 441.444 530.783 441.491 530.725 441.523C530.667 441.556 530.6 441.573 530.532 441.573Z" fill="white"/>
<path d="M527.623 385.227C527.546 385.226 527.471 385.203 527.409 385.162L483.051 356.108C482.973 356.057 482.921 355.981 482.906 355.896C482.891 355.81 482.915 355.723 482.972 355.654C483.028 355.584 483.114 355.537 483.209 355.524C483.304 355.511 483.401 355.532 483.479 355.583L527.837 384.637C527.898 384.678 527.943 384.735 527.965 384.8C527.988 384.865 527.987 384.935 527.963 385C527.939 385.065 527.893 385.121 527.831 385.161C527.77 385.201 527.695 385.222 527.619 385.222L527.623 385.227Z" fill="white"/>
<path d="M433.074 422.533C433.043 422.533 433.011 422.529 432.981 422.522C432.888 422.499 432.809 422.445 432.761 422.371C432.713 422.296 432.699 422.207 432.724 422.124L446.845 374.667C446.871 374.586 446.932 374.517 447.015 374.476C447.097 374.434 447.194 374.423 447.285 374.445C447.377 374.467 447.455 374.52 447.503 374.592C447.552 374.665 447.567 374.752 447.545 374.834L433.425 422.291C433.404 422.361 433.359 422.422 433.295 422.466C433.232 422.51 433.154 422.533 433.074 422.533Z" fill="white"/>
<path d="M508.461 547.727H0.507647C0.373011 547.727 0.243889 547.679 0.148686 547.593C0.0534841 547.508 0 547.392 0 547.271C0 547.151 0.0534841 547.035 0.148686 546.949C0.243889 546.864 0.373011 546.816 0.507647 546.816H508.459C508.594 546.816 508.723 546.864 508.818 546.949C508.914 547.035 508.967 547.151 508.967 547.271C508.967 547.392 508.914 547.508 508.818 547.593C508.723 547.679 508.594 547.727 508.459 547.727H508.461Z" fill="#292A2E"/>
<g opacity="0.65">
<path d="M508.461 547.727H0.507647C0.373011 547.727 0.243889 547.679 0.148686 547.593C0.0534841 547.508 0 547.392 0 547.271C0 547.151 0.0534841 547.035 0.148686 546.949C0.243889 546.864 0.373011 546.816 0.507647 546.816H508.459C508.594 546.816 508.723 546.864 508.818 546.949C508.914 547.035 508.967 547.151 508.967 547.271C508.967 547.392 508.914 547.508 508.818 547.593C508.723 547.679 508.594 547.727 508.459 547.727H508.461Z" fill="#292A2E"/>
</g>
</svg>
