<svg width="907" height="753" viewBox="0 0 907 753" fill="none" xmlns="http://www.w3.org/2000/svg">
<path d="M258.442 307.822L631.709 307.822C640.875 307.822 648.306 300.391 648.306 291.225V17.9369C648.306 8.77063 640.875 1.3399 631.709 1.3399L258.442 1.3399C249.276 1.3399 241.845 8.77063 241.845 17.9369L241.845 291.225C241.845 300.391 249.276 307.822 258.442 307.822Z" fill="white"/>
<path d="M631.709 308.506H258.443C253.862 308.501 249.469 306.679 246.229 303.439C242.989 300.2 241.167 295.807 241.162 291.225V17.9371C241.167 13.3554 242.989 8.96283 246.229 5.7231C249.469 2.48336 253.862 0.66106 258.443 0.656006L631.709 0.656006C636.291 0.66106 640.684 2.48334 643.923 5.72305C647.163 8.96276 648.986 13.3553 648.991 17.9371V291.225C648.986 295.807 647.163 300.2 643.923 303.439C640.684 306.679 636.291 308.501 631.709 308.506ZM258.443 2.02428C254.224 2.02911 250.18 3.70719 247.196 6.69037C244.213 9.67355 242.535 13.7182 242.53 17.9371V291.225C242.535 295.444 244.213 299.489 247.196 302.472C250.18 305.455 254.224 307.133 258.443 307.138H631.709C635.928 307.133 639.973 305.455 642.956 302.472C645.939 299.489 647.618 295.444 647.623 291.225V17.9371C647.618 13.7182 645.939 9.67348 642.956 6.69032C639.973 3.70716 635.928 2.02911 631.709 2.02428H258.443Z" fill="#292A2E"/>
<path d="M290.215 27.086L263.537 29.6158C260.782 29.8771 258.76 32.3226 259.021 35.0779L261.551 61.7558C261.813 64.5112 264.258 66.5331 267.013 66.2718L293.691 63.742C296.447 63.4807 298.469 61.0352 298.207 58.2798L295.677 31.602C295.416 28.8466 292.971 26.8247 290.215 27.086Z" fill="#292A2E"/>
<path d="M366.187 84.9577L339.543 82.091C336.791 81.795 334.32 83.7858 334.024 86.5376L331.157 113.181C330.861 115.933 332.852 118.404 335.604 118.7L362.248 121.567C365 121.863 367.47 119.872 367.766 117.12L370.633 90.4765C370.929 87.7247 368.938 85.2538 366.187 84.9577Z" fill="white"/>
<path d="M362.794 122.427C362.582 122.427 362.37 122.416 362.159 122.393L335.516 119.526C333.976 119.359 332.565 118.587 331.593 117.381C330.622 116.175 330.168 114.633 330.332 113.092L333.199 86.4502C333.281 85.6873 333.513 84.948 333.88 84.2746C334.248 83.6012 334.745 83.0068 335.342 82.5254C335.94 82.044 336.626 81.685 337.362 81.4689C338.098 81.2528 338.87 81.1839 339.633 81.266L366.276 84.1329C367.816 84.299 369.228 85.0701 370.2 86.2766C371.172 87.4831 371.625 89.0261 371.459 90.5666L368.592 117.209C368.439 118.64 367.762 119.964 366.692 120.927C365.622 121.89 364.233 122.424 362.794 122.427ZM362.336 120.742C363.438 120.86 364.543 120.536 365.406 119.84C366.27 119.145 366.821 118.135 366.94 117.032L369.808 90.3889C369.926 89.2862 369.602 88.1816 368.906 87.318C368.21 86.4543 367.2 85.9024 366.097 85.7835L339.454 82.9174C338.908 82.8586 338.355 82.908 337.828 83.0627C337.302 83.2174 336.81 83.4743 336.383 83.8189C335.955 84.1634 335.6 84.5888 335.336 85.0708C335.073 85.5528 334.908 86.0818 334.849 86.6278L331.982 113.27C331.865 114.373 332.19 115.477 332.886 116.34C333.581 117.203 334.591 117.756 335.693 117.876L362.336 120.742Z" fill="#292A2E"/>
<path d="M484.412 127.201C484.275 127.201 484.141 127.168 484.021 127.104C483.901 127.04 483.798 126.947 483.722 126.834C466.816 101.689 441.171 97.1107 422.628 97.6919C410.089 98.1693 397.708 100.666 385.964 105.086C385.761 105.168 385.534 105.167 385.332 105.083C385.13 104.998 384.97 104.837 384.886 104.635C384.802 104.433 384.801 104.206 384.884 104.003C384.967 103.8 385.126 103.638 385.327 103.553C397.258 99.0594 409.836 96.52 422.576 96.0322C441.53 95.4361 467.77 100.132 485.1 125.907C485.184 126.032 485.232 126.177 485.24 126.327C485.248 126.478 485.215 126.627 485.144 126.76C485.073 126.893 484.968 127.004 484.839 127.082C484.71 127.159 484.562 127.2 484.412 127.2V127.201Z" fill="#292A2E"/>
<path d="M484.719 127.541C484.642 127.54 484.566 127.53 484.492 127.509L467.48 122.704C467.268 122.645 467.089 122.503 466.981 122.311C466.874 122.119 466.847 121.892 466.907 121.68C466.966 121.468 467.108 121.288 467.3 121.181C467.492 121.073 467.719 121.046 467.931 121.106L484.145 125.684L488.723 109.471C488.787 109.264 488.93 109.09 489.12 108.986C489.311 108.883 489.534 108.858 489.743 108.917C489.951 108.976 490.128 109.114 490.237 109.302C490.345 109.49 490.375 109.713 490.321 109.922L485.517 126.935C485.468 127.109 485.364 127.262 485.22 127.372C485.076 127.481 484.9 127.54 484.719 127.541Z" fill="#292A2E"/>
<path d="M511.401 134.989L484.723 137.518C481.968 137.78 479.946 140.225 480.207 142.981L482.737 169.658C482.999 172.414 485.444 174.436 488.199 174.174L514.877 171.645C517.633 171.383 519.655 168.938 519.393 166.182L516.864 139.505C516.602 136.749 514.157 134.727 511.401 134.989Z" fill="#367CFF"/>
<path d="M598.592 52.9744L571.849 51.2549C569.087 51.0773 566.704 53.1724 566.527 55.9345L564.807 82.6768C564.629 85.4388 566.725 87.8219 569.487 87.9995L596.229 89.719C598.991 89.8966 601.374 87.8015 601.552 85.0394L603.271 58.2971C603.449 55.5351 601.354 53.152 598.592 52.9744Z" fill="#292A2E"/>
<path d="M613.701 140.243L587.057 137.376C584.306 137.08 581.835 139.071 581.539 141.823L578.672 168.466C578.376 171.218 580.367 173.689 583.119 173.985L609.762 176.852C612.514 177.148 614.985 175.157 615.281 172.405L618.148 145.761C618.444 143.01 616.453 140.539 613.701 140.243Z" fill="#0CBC8B"/>
<path d="M467.444 227.035L440.766 229.565C438.011 229.827 435.989 232.272 436.25 235.027L438.78 261.705C439.042 264.461 441.487 266.483 444.242 266.221L470.92 263.691C473.676 263.43 475.698 260.985 475.436 258.229L472.906 231.551C472.645 228.796 470.2 226.774 467.444 227.035Z" fill="white"/>
<path d="M443.767 267.075C442.314 267.072 440.914 266.529 439.84 265.551C438.766 264.573 438.094 263.23 437.955 261.784L435.425 235.106C435.281 233.564 435.754 232.028 436.741 230.834C437.728 229.641 439.148 228.887 440.69 228.739L467.366 226.209C468.13 226.137 468.9 226.215 469.634 226.441C470.367 226.666 471.049 227.034 471.64 227.523C472.231 228.012 472.72 228.612 473.08 229.29C473.439 229.968 473.661 230.71 473.733 231.474L476.263 258.151C476.407 259.693 475.934 261.229 474.948 262.423C473.961 263.617 472.541 264.37 470.999 264.518L444.323 267.048C444.135 267.066 443.949 267.075 443.767 267.075ZM467.927 227.843C467.794 227.843 467.66 227.85 467.526 227.862L440.846 230.39C439.742 230.495 438.725 231.035 438.018 231.889C437.312 232.744 436.973 233.844 437.076 234.948L439.606 261.625C439.713 262.728 440.253 263.744 441.107 264.45C441.961 265.156 443.061 265.495 444.164 265.393L470.841 262.863C471.945 262.757 472.962 262.217 473.668 261.363C474.375 260.508 474.713 259.409 474.61 258.305L472.08 231.627C471.981 230.593 471.501 229.632 470.733 228.932C469.965 228.232 468.963 227.843 467.924 227.841L467.927 227.843Z" fill="#292A2E"/>
<path d="M295.428 218.013L268.75 220.543C265.994 220.804 263.973 223.249 264.234 226.005L266.764 252.683C267.025 255.438 269.47 257.46 272.226 257.199L298.904 254.669C301.659 254.407 303.681 251.962 303.42 249.207L300.89 222.529C300.629 219.773 298.183 217.751 295.428 218.013Z" fill="#367CFF"/>
<path d="M508.867 121.397C508.835 121.397 508.804 121.395 508.772 121.392C508.664 121.379 508.559 121.346 508.463 121.293C508.368 121.24 508.284 121.168 508.216 121.083C508.149 120.998 508.098 120.9 508.068 120.795C508.039 120.69 508.03 120.58 508.042 120.472C509.29 112.09 511.881 103.963 515.717 96.4067C524.02 80.3137 537.04 71.0837 553.361 69.7087C553.581 69.6903 553.798 69.7597 553.967 69.9018C554.135 70.0438 554.24 70.2469 554.258 70.4664C554.277 70.6858 554.207 70.9036 554.065 71.0718C553.923 71.2401 553.72 71.345 553.501 71.3635C515.434 74.565 509.746 120.201 509.691 120.662C509.668 120.864 509.571 121.051 509.419 121.186C509.267 121.321 509.071 121.396 508.867 121.397Z" fill="#292A2E"/>
<path d="M545.465 79.5915C545.301 79.5916 545.141 79.5431 545.004 79.452C544.868 79.3609 544.761 79.2314 544.698 79.0798C544.635 78.9282 544.618 78.7614 544.65 78.6003C544.682 78.4393 544.761 78.2913 544.877 78.175L552.548 70.4694L544.844 62.7977C544.764 62.7213 544.701 62.6298 544.657 62.5286C544.613 62.4274 544.59 62.3186 544.589 62.2083C544.588 62.0981 544.608 61.9887 544.65 61.8866C544.692 61.7845 544.753 61.6917 544.831 61.6136C544.909 61.5355 545.001 61.4736 545.103 61.4316C545.205 61.3897 545.314 61.3684 545.425 61.3692C545.535 61.3699 545.644 61.3925 545.745 61.4358C545.847 61.4791 545.938 61.5421 546.015 61.6213L554.308 69.8791C554.463 70.0347 554.551 70.2459 554.551 70.466C554.551 70.6862 554.463 70.8973 554.308 71.053L546.051 79.3465C545.974 79.424 545.883 79.4855 545.783 79.5275C545.682 79.5695 545.574 79.5913 545.465 79.5915Z" fill="#292A2E"/>
<path d="M454.891 214.634C454.714 214.634 454.541 214.577 454.398 214.471C454.255 214.365 454.15 214.217 454.097 214.047C453.974 213.641 442.033 173.318 472.944 156.593C473.041 156.538 473.146 156.504 473.256 156.491C473.366 156.478 473.477 156.487 473.583 156.517C473.689 156.548 473.788 156.599 473.874 156.668C473.96 156.737 474.031 156.823 474.084 156.92C474.136 157.017 474.169 157.124 474.18 157.234C474.191 157.344 474.179 157.455 474.147 157.56C474.114 157.666 474.061 157.764 473.99 157.848C473.919 157.933 473.832 158.002 473.734 158.053C444.028 174.124 455.568 213.164 455.687 213.557C455.726 213.681 455.734 213.812 455.712 213.94C455.69 214.068 455.638 214.189 455.561 214.294C455.484 214.398 455.383 214.483 455.268 214.541C455.152 214.6 455.024 214.63 454.894 214.63L454.891 214.634Z" fill="#292A2E"/>
<path d="M469.787 167.668C469.652 167.668 469.519 167.635 469.399 167.572C469.28 167.509 469.178 167.418 469.102 167.306C469.026 167.195 468.978 167.066 468.962 166.932C468.947 166.798 468.965 166.662 469.014 166.536L472.477 157.639L463.58 154.171C463.378 154.089 463.217 153.931 463.131 153.731C463.046 153.531 463.042 153.305 463.12 153.102C463.199 152.9 463.354 152.736 463.553 152.646C463.751 152.557 463.976 152.549 464.181 152.624L473.853 156.388C473.955 156.428 474.048 156.487 474.126 156.562C474.205 156.638 474.268 156.728 474.312 156.828C474.356 156.928 474.38 157.035 474.382 157.144C474.384 157.253 474.365 157.362 474.326 157.463L470.56 167.135C470.5 167.292 470.394 167.426 470.256 167.522C470.118 167.617 469.954 167.668 469.787 167.668Z" fill="#292A2E"/>
<path d="M351.629 77.49C351.409 77.49 351.198 77.4025 351.042 77.2468C350.886 77.0911 350.799 76.8799 350.799 76.6597C350.799 64.0472 347.077 54.4195 339.733 48.0447C326.698 36.7307 306.424 39.4581 306.22 39.4872C306.002 39.5184 305.781 39.4616 305.605 39.3295C305.428 39.1974 305.312 39.0007 305.281 38.7827C305.25 38.5647 305.306 38.3433 305.438 38.1671C305.571 37.9909 305.767 37.8744 305.985 37.8433C306.845 37.7196 327.199 34.9739 340.814 46.7835C348.542 53.4879 352.46 63.5399 352.459 76.6597C352.459 76.7687 352.438 76.8767 352.396 76.9774C352.354 77.0781 352.293 77.1697 352.216 77.2468C352.139 77.3239 352.047 77.385 351.947 77.4268C351.846 77.4685 351.738 77.49 351.629 77.49Z" fill="#292A2E"/>
<path d="M351.669 77.7871C351.643 77.7871 351.616 77.7871 351.591 77.7871C351.482 77.7769 351.376 77.7454 351.28 77.6944C351.184 77.6434 351.098 77.5739 351.028 77.4899L343.562 68.474C343.421 68.3044 343.354 68.0859 343.375 67.8665C343.395 67.6472 343.502 67.4451 343.672 67.3046C343.842 67.1641 344.06 67.0968 344.279 67.1174C344.499 67.1381 344.701 67.245 344.841 67.4146L351.782 75.7945L360.157 68.8601C360.241 68.7906 360.338 68.7383 360.442 68.7063C360.547 68.6742 360.656 68.663 360.765 68.6732C360.873 68.6835 360.979 68.715 361.075 68.766C361.171 68.817 361.257 68.8865 361.326 68.9705C361.396 69.0545 361.448 69.1514 361.48 69.2556C361.512 69.3598 361.523 69.4694 361.513 69.5779C361.503 69.6865 361.471 69.7919 361.42 69.8883C361.369 69.9847 361.3 70.07 361.216 70.1395L352.197 77.5995C352.048 77.7213 351.861 77.7876 351.669 77.7871Z" fill="#292A2E"/>
<path d="M370.026 169.081H343.229C340.461 169.081 338.217 171.325 338.217 174.093V200.89C338.217 203.658 340.461 205.902 343.229 205.902H370.026C372.794 205.902 375.038 203.658 375.038 200.89V174.093C375.038 171.325 372.794 169.081 370.026 169.081Z" fill="#0CBC8B"/>
<path d="M438.275 218.055C438.09 218.054 437.911 217.992 437.765 217.879C437.62 217.765 437.516 217.606 437.471 217.426C428.215 180.397 382.954 182.994 382.504 183.024C382.395 183.032 382.285 183.018 382.182 182.983C382.078 182.948 381.983 182.893 381.9 182.821C381.818 182.749 381.751 182.662 381.702 182.564C381.654 182.466 381.625 182.359 381.618 182.25C381.61 182.141 381.624 182.032 381.659 181.928C381.694 181.825 381.749 181.729 381.821 181.647C381.893 181.564 381.98 181.497 382.078 181.449C382.176 181.4 382.283 181.371 382.392 181.364C390.728 181.082 399.054 182.178 407.033 184.607C418.883 188.309 434.062 196.938 439.081 217.02C439.108 217.125 439.113 217.235 439.097 217.343C439.081 217.451 439.044 217.555 438.988 217.648C438.932 217.742 438.858 217.823 438.77 217.888C438.682 217.953 438.583 218 438.477 218.027C438.411 218.045 438.343 218.054 438.275 218.055Z" fill="#292A2E"/>
<path d="M438.39 218.335C438.218 218.335 438.05 218.281 437.91 218.181L428.514 211.513C428.334 211.386 428.213 211.192 428.176 210.975C428.139 210.758 428.191 210.535 428.318 210.356C428.446 210.176 428.639 210.055 428.857 210.018C429.074 209.981 429.297 210.032 429.476 210.16L438.185 216.341L444.392 207.339C444.518 207.159 444.71 207.037 444.926 206.998C445.141 206.959 445.364 207.007 445.544 207.132C445.725 207.256 445.848 207.447 445.889 207.663C445.929 207.878 445.882 208.101 445.759 208.282L439.074 217.976C439.011 218.067 438.932 218.144 438.839 218.203C438.747 218.263 438.643 218.303 438.535 218.322C438.487 218.331 438.439 218.335 438.39 218.335Z" fill="#292A2E"/>
<path d="M846.565 752.254L848.195 751.94L822.71 498.685L821.079 498.998L846.565 752.254Z" fill="#494949"/>
<path d="M751.668 752.254L753.299 751.94L727.814 498.685L726.183 498.998L751.668 752.254Z" fill="#494949"/>
<path d="M541.904 752.254L540.273 751.94L565.759 498.685L567.389 498.998L541.904 752.254Z" fill="#494949"/>
<path d="M636.801 752.254L635.17 751.94L660.655 498.685L662.286 498.998L636.801 752.254Z" fill="#494949"/>
<path d="M670.59 387.219L655.702 498.727L657.348 498.947L672.236 387.439L670.59 387.219Z" fill="#494949"/>
<path d="M841.477 387.219L826.589 498.727L828.235 498.946L843.123 387.439L841.477 387.219Z" fill="#494949"/>
<path d="M655.853 507.007H823.002C827.512 507.007 831.167 503.351 831.167 498.841V498.841C831.167 494.331 827.512 490.675 823.002 490.675H655.853C651.344 490.675 647.688 494.331 647.688 498.841V498.841C647.688 503.351 651.344 507.007 655.853 507.007Z" fill="#292A2E"/>
<path opacity="0.8" d="M655.853 507.007H823.002C827.512 507.007 831.167 503.351 831.167 498.841V498.841C831.167 494.331 827.512 490.675 823.002 490.675H655.853C651.344 490.675 647.688 494.331 647.688 498.841V498.841C647.688 503.351 651.344 507.007 655.853 507.007Z" fill="white"/>
<path d="M646.857 498.841C646.86 496.457 647.809 494.17 649.495 492.484C651.182 490.798 653.468 489.849 655.853 489.846H823.002C825.388 489.846 827.676 490.794 829.363 492.481C831.05 494.168 831.998 496.456 831.998 498.842C831.998 501.228 831.05 503.516 829.363 505.203C827.676 506.89 825.388 507.838 823.002 507.838H655.853C653.468 507.835 651.182 506.887 649.495 505.2C647.809 503.513 646.86 501.227 646.857 498.841ZM655.853 491.506C653.908 491.506 652.042 492.279 650.666 493.655C649.291 495.03 648.518 496.896 648.518 498.841C648.518 500.787 649.291 502.653 650.666 504.028C652.042 505.404 653.908 506.177 655.853 506.177H823.002C824.947 506.177 826.813 505.404 828.189 504.028C829.564 502.653 830.337 500.787 830.337 498.841C830.337 496.896 829.564 495.03 828.189 493.655C826.813 492.279 824.947 491.506 823.002 491.506H655.853Z" fill="#292A2E"/>
<path d="M564.113 507.007H731.262C735.771 507.007 739.427 503.351 739.427 498.841V498.841C739.427 494.331 735.771 490.675 731.262 490.675H564.113C559.604 490.675 555.948 494.331 555.948 498.841V498.841C555.948 503.351 559.604 507.007 564.113 507.007Z" fill="white"/>
<path d="M555.113 498.841C555.116 496.456 556.066 494.169 557.753 492.483C559.44 490.796 561.728 489.848 564.113 489.846H731.262C733.648 489.846 735.936 490.794 737.623 492.481C739.31 494.168 740.258 496.456 740.258 498.842C740.258 501.228 739.31 503.516 737.623 505.203C735.936 506.89 733.648 507.838 731.262 507.838H564.113C561.728 507.836 559.44 506.888 557.753 505.201C556.065 503.514 555.116 501.227 555.113 498.841ZM564.113 491.507C563.15 491.507 562.196 491.697 561.306 492.065C560.416 492.434 559.608 492.974 558.926 493.655C558.245 494.337 557.705 495.145 557.336 496.035C556.968 496.925 556.778 497.879 556.778 498.842C556.778 499.806 556.968 500.759 557.336 501.649C557.705 502.539 558.245 503.348 558.926 504.029C559.608 504.71 560.416 505.251 561.306 505.619C562.196 505.988 563.15 506.178 564.113 506.178H731.262C733.207 506.178 735.073 505.405 736.449 504.029C737.824 502.654 738.597 500.788 738.597 498.842C738.597 496.897 737.824 495.031 736.449 493.655C735.073 492.28 733.207 491.507 731.262 491.507H564.113Z" fill="#292A2E"/>
<path d="M679.756 387.334H841.862C844.513 387.334 847.072 386.369 849.064 384.62C851.055 382.871 852.342 380.457 852.685 377.829L863.407 295.482C863.607 293.943 863.477 292.379 863.025 290.894C862.573 289.409 861.809 288.038 860.785 286.871C859.761 285.705 858.5 284.771 857.086 284.131C855.672 283.491 854.137 283.159 852.585 283.159H690.479C687.827 283.159 685.267 284.123 683.274 285.872C681.282 287.622 679.995 290.037 679.653 292.666L668.93 375.011C668.73 376.551 668.86 378.115 669.312 379.6C669.765 381.086 670.529 382.457 671.553 383.623C672.578 384.79 673.84 385.724 675.254 386.364C676.669 387.004 678.204 387.335 679.756 387.334Z" fill="#292A2E"/>
<path opacity="0.8" d="M679.756 387.334H841.862C844.513 387.334 847.072 386.369 849.064 384.62C851.055 382.871 852.342 380.457 852.685 377.829L863.407 295.482C863.607 293.943 863.477 292.379 863.025 290.894C862.573 289.409 861.809 288.038 860.785 286.871C859.761 285.705 858.5 284.771 857.086 284.131C855.672 283.491 854.137 283.159 852.585 283.159H690.479C687.827 283.159 685.267 284.123 683.274 285.872C681.282 287.622 679.995 290.037 679.653 292.666L668.93 375.011C668.73 376.551 668.86 378.115 669.312 379.6C669.765 381.086 670.529 382.457 671.553 383.623C672.578 384.79 673.84 385.724 675.254 386.364C676.669 387.004 678.204 387.335 679.756 387.334Z" fill="white"/>
<path d="M670.935 384.17C669.833 382.915 669.011 381.439 668.524 379.842C668.037 378.244 667.897 376.561 668.112 374.904L678.835 292.559C679.209 289.733 680.596 287.139 682.737 285.258C684.879 283.377 687.63 282.337 690.48 282.331H852.586C854.257 282.331 855.908 282.687 857.43 283.376C858.951 284.065 860.309 285.07 861.411 286.325C862.513 287.58 863.335 289.056 863.821 290.654C864.308 292.252 864.448 293.935 864.232 295.592L853.51 377.936C853.136 380.762 851.749 383.356 849.608 385.237C847.466 387.118 844.715 388.158 841.865 388.164H679.756C678.086 388.164 676.436 387.807 674.915 387.118C673.394 386.43 672.037 385.424 670.935 384.17ZM690.479 283.991C688.032 283.997 685.671 284.891 683.832 286.506C681.994 288.121 680.804 290.347 680.483 292.773L669.76 375.118C669.575 376.54 669.696 377.986 670.113 379.358C670.531 380.73 671.237 381.997 672.183 383.074C673.129 384.152 674.295 385.015 675.601 385.606C676.907 386.198 678.325 386.504 679.759 386.504H841.865C844.313 386.498 846.675 385.605 848.514 383.99C850.353 382.375 851.543 380.148 851.864 377.722L862.586 295.377C862.771 293.955 862.651 292.509 862.234 291.138C861.816 289.766 861.111 288.499 860.164 287.421C859.218 286.343 858.053 285.48 856.746 284.889C855.44 284.297 854.022 283.991 852.588 283.991H690.479Z" fill="#292A2E"/>
<path d="M670.588 387.334H832.695C835.345 387.334 837.905 386.369 839.896 384.62C841.888 382.871 843.175 380.457 843.517 377.829L854.24 295.482C854.44 293.943 854.31 292.379 853.858 290.894C853.406 289.409 852.642 288.038 851.618 286.871C850.593 285.705 849.332 284.771 847.918 284.131C846.504 283.491 844.97 283.159 843.417 283.159H681.313C678.663 283.159 676.103 284.124 674.112 285.873C672.12 287.622 670.834 290.035 670.491 292.663L659.769 375.009C659.568 376.548 659.697 378.112 660.149 379.597C660.601 381.083 661.364 382.454 662.389 383.621C663.413 384.787 664.674 385.722 666.088 386.362C667.502 387.003 669.036 387.334 670.588 387.334Z" fill="white"/>
<path d="M661.765 384.17C660.662 382.915 659.84 381.439 659.354 379.841C658.867 378.244 658.726 376.56 658.942 374.904L669.665 292.559C670.039 289.732 671.426 287.138 673.568 285.257C675.71 283.376 678.462 282.336 681.313 282.331H843.419C845.09 282.33 846.741 282.687 848.262 283.376C849.784 284.064 851.141 285.07 852.244 286.325C853.346 287.58 854.168 289.056 854.654 290.654C855.14 292.252 855.28 293.935 855.065 295.591L844.342 377.936C843.968 380.762 842.581 383.356 840.44 385.237C838.298 387.117 835.547 388.158 832.696 388.164H670.589C668.918 388.164 667.267 387.807 665.746 387.119C664.224 386.43 662.867 385.424 661.765 384.17ZM681.313 283.991C678.866 283.997 676.504 284.89 674.665 286.505C672.826 288.12 671.636 290.347 671.314 292.773L660.591 375.118C660.406 376.54 660.527 377.985 660.944 379.357C661.362 380.729 662.068 381.996 663.014 383.074C663.96 384.151 665.126 385.015 666.432 385.606C667.739 386.198 669.156 386.504 670.59 386.504H832.695C835.142 386.498 837.504 385.605 839.343 383.99C841.182 382.375 842.372 380.148 842.694 377.722L853.416 295.377C853.602 293.955 853.481 292.51 853.063 291.138C852.646 289.766 851.94 288.499 850.994 287.421C850.048 286.344 848.882 285.48 847.576 284.889C846.269 284.297 844.852 283.991 843.418 283.991H681.313Z" fill="#292A2E"/>
<path d="M548.072 708.384C548.072 708.384 543.621 731.46 522.015 732.746C500.409 734.032 505.094 751.244 505.094 751.244H587.66V709.993L548.072 708.384Z" fill="#684EA0"/>
<path d="M622.154 693.814C622.154 693.814 628.345 716.485 609.526 727.177C590.708 737.868 602.508 751.244 602.508 751.244L676.594 714.795L658.386 677.784L622.154 693.814Z" fill="#684EA0"/>
<path d="M668.041 687.411L605.564 490.315H718.812C741.561 490.315 751.044 471.024 751.044 448.276C751.044 425.529 728.681 405.587 705.933 405.587H553.089C539.216 405.587 523.658 414.073 516.043 425.671C508.428 437.27 510.486 455.244 516.003 467.974L616.05 710.964" fill="#262626"/>
<path opacity="0.8" d="M668.041 687.411L605.564 490.315H718.812C741.561 490.315 751.044 471.024 751.044 448.276C751.044 425.529 728.681 405.587 705.933 405.587H553.089C539.216 405.587 523.658 414.073 516.043 425.671C508.428 437.27 510.486 455.244 516.003 467.974L616.05 710.964" fill="#0A0A0A"/>
<path d="M594.114 724.926L613.874 490.315L751.041 490.305C783.182 487.786 797.901 470.172 797.434 447.429C796.971 424.975 785.602 402.797 763.248 402.797H578.377C561.838 403.136 542.691 418.781 542.691 436.774L533.084 722.2" fill="#262626"/>
<path d="M806.792 403.071C806.792 403.071 812.884 442.796 803.228 464.882C791.173 492.455 745.984 490.306 745.984 490.306L748.53 402.797L806.792 403.071Z" fill="#262626"/>
<path d="M813.506 398.582L813.682 398.591C813.682 398.591 813.555 395.207 813.506 398.582Z" fill="#333333"/>
<path d="M813.285 398.582L813.461 398.591C813.461 398.591 813.334 395.207 813.285 398.582Z" fill="#333333"/>
<path d="M519.219 237.53C519.542 236.89 520.056 236.366 520.69 236.03C521.323 235.695 522.045 235.564 522.757 235.657C522.751 235.594 522.765 235.53 522.796 235.475C522.829 235.432 522.873 235.399 522.923 235.379C522.973 235.359 523.027 235.352 523.08 235.36L520.681 233.639C519.964 233.148 519.449 232.413 519.231 231.572C519.014 230.731 519.107 229.839 519.495 229.061C519.904 228.305 520.579 227.728 521.389 227.441C522.2 227.155 523.087 227.179 523.881 227.509C523.875 227.475 523.897 227.443 523.902 227.408L522.917 226.702C522.243 226.236 521.751 225.552 521.523 224.766C521.295 223.979 521.346 223.138 521.666 222.384C521.878 221.916 522.191 221.5 522.582 221.167C522.974 220.834 523.435 220.592 523.931 220.458C524.428 220.325 524.947 220.303 525.453 220.395C525.959 220.486 526.438 220.689 526.856 220.989L529.132 222.619C529.139 222.606 529.132 222.59 529.141 222.578C529.15 222.565 529.174 222.56 529.188 222.547C528.665 221.959 528.358 221.211 528.317 220.426C528.275 219.641 528.501 218.864 528.959 218.225C530.033 216.497 532.512 216.85 533.983 217.904L547.376 227.155L544.984 223.117C544.502 222.341 544.332 221.411 544.509 220.515C544.686 219.62 545.197 218.824 545.937 218.29C546.329 218.028 546.771 217.848 547.234 217.762C547.698 217.676 548.174 217.685 548.634 217.79C549.094 217.894 549.528 218.09 549.909 218.368C550.291 218.645 550.612 218.997 550.853 219.403L563.923 241.405C565.457 243.986 565.923 247.064 565.223 249.984C564.524 252.904 562.713 255.436 560.176 257.042C557.235 258.905 553.803 259.847 550.323 259.747C546.842 259.647 543.47 258.509 540.64 256.481L520.415 241.984C519.743 241.485 519.26 240.773 519.043 239.965C518.826 239.157 518.888 238.299 519.219 237.53Z" fill="#E98862"/>
<g opacity="0.25">
<path d="M542.385 231.754C542.336 231.821 542.262 231.867 542.18 231.881C542.097 231.895 542.013 231.876 541.944 231.828L529.219 223.015C529.15 222.966 529.103 222.892 529.088 222.809C529.073 222.726 529.092 222.64 529.14 222.571C529.188 222.501 529.262 222.453 529.345 222.438C529.428 222.422 529.514 222.44 529.584 222.488L542.309 231.303C542.344 231.326 542.374 231.357 542.397 231.392C542.42 231.427 542.436 231.467 542.443 231.508C542.451 231.55 542.451 231.592 542.442 231.634C542.433 231.675 542.416 231.714 542.392 231.749L542.385 231.754Z" fill="#0C0C0C"/>
</g>
<g opacity="0.25">
<path d="M538.653 237.473C538.604 237.541 538.53 237.587 538.448 237.601C538.365 237.615 538.28 237.596 538.211 237.548L524.014 227.712C523.944 227.664 523.896 227.59 523.88 227.506C523.865 227.423 523.883 227.336 523.931 227.266C523.981 227.198 524.055 227.152 524.138 227.137C524.22 227.121 524.306 227.138 524.377 227.183L538.578 237.019C538.613 237.043 538.643 237.073 538.666 237.109C538.689 237.144 538.705 237.184 538.712 237.225C538.72 237.266 538.72 237.309 538.711 237.35C538.702 237.391 538.685 237.43 538.661 237.465L538.653 237.473Z" fill="#0C0C0C"/>
</g>
<g opacity="0.25">
<path d="M534.647 243.691C534.597 243.759 534.524 243.805 534.441 243.819C534.358 243.833 534.274 243.814 534.205 243.766L522.877 235.92C522.81 235.871 522.764 235.797 522.75 235.715C522.737 235.632 522.756 235.548 522.803 235.479C522.851 235.41 522.923 235.363 523.005 235.347C523.087 235.331 523.172 235.348 523.242 235.394L534.57 243.24C534.605 243.263 534.635 243.294 534.658 243.329C534.681 243.365 534.696 243.404 534.704 243.445C534.712 243.487 534.711 243.529 534.703 243.571C534.694 243.612 534.677 243.651 534.653 243.686L534.647 243.691Z" fill="#0C0C0C"/>
</g>
<path d="M571.636 236.396L610.02 301.77L656.858 240.336L695.754 275.404L629.325 361.432L628.89 362.044C626.231 365.686 622.689 368.591 618.597 370.485C614.505 372.379 609.998 373.201 605.501 372.871C601.004 372.542 596.665 371.074 592.893 368.604C589.12 366.134 586.039 362.745 583.938 358.755L529.354 259.907L571.636 236.396Z" fill="#684EA0"/>
<path d="M613.78 309.631C613.864 309.631 613.946 309.609 614.019 309.569C614.092 309.528 614.153 309.469 614.196 309.398C614.24 309.327 614.264 309.246 614.268 309.162C614.271 309.079 614.253 308.996 614.215 308.922L610.452 301.548C610.391 301.437 610.289 301.355 610.168 301.318C610.046 301.281 609.916 301.292 609.803 301.35C609.69 301.407 609.604 301.506 609.563 301.626C609.522 301.746 609.529 301.877 609.583 301.991L613.346 309.365C613.387 309.445 613.449 309.512 613.526 309.559C613.602 309.606 613.691 309.631 613.78 309.631Z" fill="#0C0C0C"/>
<path d="M659.555 301.399L658.582 301.454L659.754 322.102L660.727 322.047L659.555 301.399Z" fill="#0C0C0C"/>
<path d="M783.241 151.963C783.241 151.963 785.04 174.946 790.312 183.232C805.487 207.083 810.116 234.059 795.36 248.351C780.605 262.642 685.453 263.941 677.868 231.552C671.483 204.28 684.473 201.19 687.381 178.598C688.697 168.377 692.393 146.931 692.393 146.931" fill="#0A0A0A"/>
<path d="M702.092 226.37C702.258 226.349 704.079 256.592 739.216 253.958C763.543 252.136 772.214 226.327 772.772 226.327C770.149 225.77 765.733 224.96 764.568 224.334C760.737 222.276 755.998 220.135 754.764 212.697C754.052 208.409 755.262 186.476 754.887 182.138L717.549 190.472C718.07 199.633 721.722 220.871 708.923 224.63C706.794 225.255 704.5 225.827 702.092 226.37Z" fill="#E98862"/>
<path opacity="0.52" d="M717.025 215.954C717.61 214.069 717.987 212.125 718.148 210.158C718.559 205.67 718.477 201.15 717.904 196.68C725.493 195.656 732.643 192.523 738.541 187.638C739.234 190.199 743.048 201.388 741.992 203.821C739.996 208.422 730.618 215.954 717.025 215.954Z" fill="#0C0C0C"/>
<path d="M721.974 206.435C736.711 207.689 755.689 201.579 759.407 181.931L762.762 164.202C766.481 144.553 759.176 126.674 740.678 123.17C722.178 119.669 705.335 132.981 701.616 152.63L700.131 160.478C698.702 168.018 695.681 204.197 721.974 206.435Z" fill="#E98862"/>
<path d="M705.401 161.334C706.682 161.334 707.72 160.296 707.72 159.015C707.72 157.735 706.682 156.696 705.401 156.696C704.121 156.696 703.083 157.735 703.083 159.015C703.083 160.296 704.121 161.334 705.401 161.334Z" fill="#0C0C0C"/>
<path d="M729.16 164.507C730.441 164.507 731.479 163.469 731.479 162.189C731.479 160.908 730.441 159.87 729.16 159.87C727.88 159.87 726.841 160.908 726.841 162.189C726.841 163.469 727.88 164.507 729.16 164.507Z" fill="#0C0C0C"/>
<path d="M716.122 179.191C716.11 179.19 716.098 179.188 716.086 179.186C715.337 179.038 714.596 178.849 713.868 178.62C712.779 178.271 711.354 177.691 711.543 176.711C711.754 175.591 717.106 164.091 717.717 162.785C717.77 162.67 717.866 162.582 717.985 162.539C718.103 162.495 718.234 162.501 718.348 162.554C718.462 162.607 718.551 162.704 718.594 162.822C718.637 162.941 718.632 163.071 718.578 163.186C716.295 168.084 712.619 176.138 712.477 176.885C712.599 177.234 714.405 177.898 716.265 178.251C716.386 178.272 716.495 178.341 716.567 178.441C716.639 178.541 716.669 178.666 716.651 178.788C716.633 178.911 716.567 179.021 716.469 179.096C716.371 179.171 716.247 179.205 716.124 179.19L716.122 179.191Z" fill="#0C0C0C"/>
<path d="M718.862 187.674C715.844 187.282 712.961 186.187 710.444 184.476C710.338 184.407 710.264 184.299 710.238 184.176C710.212 184.053 710.236 183.924 710.305 183.819C710.374 183.713 710.482 183.639 710.605 183.613C710.729 183.587 710.857 183.611 710.963 183.68C716.408 187.228 721.821 187.802 726.612 185.34C726.709 185.287 726.808 185.24 726.91 185.198C727.029 185.156 727.159 185.162 727.274 185.215C727.388 185.269 727.476 185.365 727.519 185.484C727.561 185.602 727.555 185.733 727.502 185.847C727.448 185.961 727.352 186.049 727.233 186.092C727.196 186.108 727.133 186.141 727.047 186.186C724.527 187.485 721.677 188.003 718.862 187.674Z" fill="#0C0C0C"/>
<path d="M777.563 170.381L760.979 167.34C748.419 162.257 744.622 140.515 744.622 140.515C744.622 140.515 729.366 155.385 692.399 146.927C692.399 146.927 699.812 95.3682 754.432 110.359C772.043 115.194 784.683 132.943 783.109 156.661C782 173.284 777.563 170.381 777.563 170.381Z" fill="#0A0A0A"/>
<path d="M757.126 187.7C762.747 188.763 768.443 183.612 769.507 177.986C770.572 172.36 766.602 168.4 760.978 167.337L757.368 170.556L752.292 186.782L757.126 187.7Z" fill="#E98862"/>
<path d="M714.326 153.386C712.687 152.327 710.792 151.729 708.841 151.654C707.881 151.612 706.92 151.713 705.99 151.956C705.068 152.192 704.181 152.544 703.347 153.003C703.241 153.067 703.162 153.168 703.126 153.287C703.091 153.406 703.101 153.535 703.155 153.646C703.209 153.758 703.303 153.846 703.419 153.892C703.534 153.938 703.662 153.94 703.779 153.896L703.814 153.88C704.584 153.503 705.399 153.224 706.239 153.05C707.069 152.872 707.922 152.821 708.767 152.899C710.445 153.039 712.055 153.62 713.435 154.585L713.48 154.618C713.558 154.683 713.65 154.732 713.748 154.761C713.846 154.79 713.949 154.798 714.051 154.785C714.152 154.773 714.25 154.739 714.339 154.687C714.427 154.635 714.503 154.565 714.563 154.482C714.623 154.399 714.666 154.305 714.688 154.205C714.71 154.105 714.711 154.002 714.692 153.901C714.672 153.8 714.632 153.705 714.574 153.621C714.516 153.536 714.442 153.465 714.355 153.41L714.326 153.386Z" fill="#0C0C0C"/>
<path d="M729.117 156.868C730.752 156.468 732.464 156.507 734.079 156.982C734.895 157.215 735.672 157.571 736.382 158.037C737.102 158.504 737.76 159.06 738.341 159.691L738.368 159.717C738.461 159.8 738.581 159.845 738.705 159.844C738.829 159.843 738.949 159.795 739.04 159.71C739.13 159.626 739.186 159.51 739.196 159.386C739.206 159.262 739.17 159.139 739.094 159.041C738.482 158.313 737.781 157.664 737.008 157.11C736.228 156.548 735.369 156.106 734.458 155.799C732.612 155.163 730.629 155.037 728.717 155.432C728.535 155.485 728.379 155.604 728.281 155.766C728.184 155.929 728.152 156.123 728.191 156.308C728.231 156.493 728.34 156.657 728.496 156.765C728.651 156.873 728.842 156.918 729.03 156.89L729.061 156.883L729.117 156.868Z" fill="#0C0C0C"/>
<path d="M718.22 192.135C717.673 192.073 717.132 191.964 716.604 191.811C716.483 191.776 716.38 191.694 716.32 191.584C716.259 191.473 716.244 191.343 716.279 191.222C716.314 191.101 716.395 190.999 716.506 190.938C716.616 190.877 716.746 190.862 716.867 190.897C720.047 191.811 721.855 190.6 721.932 190.548C722.035 190.475 722.163 190.447 722.287 190.469C722.411 190.49 722.521 190.56 722.594 190.664C722.666 190.767 722.695 190.894 722.673 191.019C722.651 191.143 722.581 191.253 722.478 191.326C721.195 192.079 719.69 192.365 718.22 192.135Z" fill="#0C0C0C"/>
<path d="M760.942 167.13L761.108 166.671C740.096 159.128 745.235 138.508 745.289 138.3L744.817 138.177C744.761 138.388 739.504 159.434 760.942 167.13Z" fill="#0C0C0C"/>
<path opacity="0.1" d="M735.77 177.887C735.961 176.107 734.15 174.453 731.724 174.192C729.298 173.931 727.176 175.162 726.985 176.942C726.793 178.721 728.605 180.375 731.031 180.636C733.457 180.897 735.578 179.666 735.77 177.887Z" fill="#0C0C0C"/>
<path opacity="0.1" d="M705.354 173.83C705.157 175.607 703.037 176.837 700.611 176.579C700.191 176.534 699.778 176.445 699.377 176.315C699.24 174.2 699.211 172.163 699.25 170.28C699.92 170.104 700.618 170.055 701.306 170.136C703.73 170.393 705.543 172.047 705.354 173.83Z" fill="#0C0C0C"/>
<path d="M658.436 292.958C659.543 305.961 664.926 386.778 665.991 402.797L806.792 403.096C807.622 388.649 817.192 325.49 820.334 297.242C823.333 270.289 829.218 256.794 824.9 248.825C817.853 235.801 798.596 228.276 785.463 226.497C777.445 225.412 765.385 224.634 765.385 224.634C765.385 224.634 764.364 245.29 740.016 246.44C706.871 248.004 709.084 224.634 708.92 224.634C703.551 224.634 672.877 228.033 665.372 232.481C644.927 244.587 656.086 265.404 658.436 292.958Z" fill="#684EA0"/>
<path d="M567.043 302.041L580.615 368.008C580.89 369.348 581.617 370.552 582.673 371.421C583.73 372.289 585.052 372.77 586.419 372.781L679.874 373.577C680.766 373.584 681.648 373.392 682.456 373.015C683.263 372.638 683.977 372.084 684.543 371.396C685.109 370.707 685.514 369.901 685.728 369.035C685.943 368.17 685.961 367.267 685.781 366.394L672.209 300.427C671.933 299.088 671.206 297.883 670.15 297.015C669.094 296.147 667.772 295.666 666.404 295.655L572.949 294.859C572.058 294.851 571.176 295.043 570.368 295.42C569.56 295.798 568.847 296.351 568.281 297.039C567.714 297.728 567.309 298.535 567.095 299.4C566.881 300.266 566.863 301.168 567.043 302.041Z" fill="#292A2E"/>
<path d="M654.188 348.899C654.138 349.767 654.404 350.624 654.936 351.312C655.469 352 656.232 352.473 657.085 352.643L659.961 353.277C659.91 353.294 659.864 353.324 659.826 353.363C659.789 353.402 659.761 353.45 659.746 353.502C659.74 353.563 659.753 353.624 659.785 353.677C659.094 353.871 658.48 354.276 658.029 354.835C657.578 355.395 657.313 356.081 657.27 356.798C657.266 357.634 657.544 358.446 658.059 359.105C658.574 359.763 659.295 360.229 660.108 360.426L684.401 365.823C685.643 366.1 686.913 366.239 688.185 366.238C691.021 366.238 693.814 365.548 696.323 364.227C698.833 362.907 700.983 360.997 702.59 358.66C704.293 356.188 704.965 353.149 704.463 350.189C703.96 347.23 702.322 344.583 699.898 342.812L679.233 327.701C678.778 327.368 678.249 327.151 677.692 327.067L679.593 336.303L679.087 336.186L678.979 336.167L663.131 332.943C661.365 332.553 658.947 333.193 658.635 335.206C658.467 335.975 658.565 336.778 658.911 337.484C659.258 338.191 659.834 338.759 660.544 339.097C660.534 339.107 660.514 339.116 660.514 339.136C660.514 339.156 660.524 339.165 660.524 339.185L657.785 338.58C657.283 338.469 656.764 338.471 656.264 338.585C655.763 338.699 655.294 338.922 654.891 339.239C654.487 339.556 654.159 339.959 653.929 340.418C653.7 340.877 653.575 341.381 653.563 341.894C653.564 342.713 653.847 343.508 654.366 344.142C654.885 344.777 655.608 345.212 656.411 345.375L657.591 345.638C657.601 345.677 657.591 345.716 657.611 345.746C656.751 345.752 655.924 346.079 655.291 346.661C654.658 347.244 654.265 348.042 654.188 348.899Z" fill="#E98862"/>
<g opacity="0.25">
<path d="M676.304 342.386C676.285 342.468 676.235 342.539 676.165 342.584C676.095 342.629 676.009 342.645 675.927 342.629L660.764 339.518C660.721 339.511 660.681 339.495 660.645 339.472C660.609 339.448 660.578 339.418 660.554 339.383C660.53 339.347 660.514 339.308 660.505 339.266C660.497 339.224 660.497 339.18 660.506 339.138C660.514 339.096 660.531 339.057 660.555 339.021C660.58 338.986 660.611 338.956 660.647 338.933C660.683 338.91 660.723 338.894 660.765 338.887C660.807 338.88 660.851 338.881 660.892 338.891L676.056 342.001C676.097 342.009 676.136 342.026 676.171 342.049C676.206 342.073 676.236 342.103 676.259 342.138C676.282 342.173 676.298 342.212 676.306 342.254C676.314 342.295 676.314 342.337 676.305 342.379L676.304 342.386Z" fill="#0C0C0C"/>
</g>
<g opacity="0.25">
<path d="M675.117 349.112C675.098 349.194 675.048 349.264 674.977 349.309C674.907 349.355 674.822 349.37 674.74 349.354L657.817 345.883C657.776 345.875 657.736 345.858 657.702 345.835C657.667 345.811 657.637 345.781 657.614 345.746C657.591 345.711 657.575 345.672 657.567 345.63C657.559 345.589 657.559 345.547 657.568 345.506C657.587 345.424 657.638 345.353 657.708 345.306C657.778 345.26 657.863 345.242 657.946 345.256L674.869 348.727C674.952 348.744 675.025 348.794 675.071 348.865C675.118 348.936 675.135 349.022 675.118 349.106L675.117 349.112Z" fill="#0C0C0C"/>
</g>
<g opacity="0.25">
<path d="M673.873 356.403C673.854 356.485 673.804 356.556 673.734 356.601C673.664 356.647 673.578 356.663 673.496 356.646L659.997 353.878C659.915 353.86 659.843 353.81 659.797 353.739C659.751 353.668 659.735 353.583 659.752 353.5C659.769 353.418 659.818 353.345 659.888 353.298C659.958 353.252 660.044 353.234 660.127 353.25L673.625 356.018C673.708 356.035 673.781 356.085 673.828 356.156C673.874 356.226 673.891 356.313 673.874 356.396L673.873 356.403Z" fill="#0C0C0C"/>
</g>
<path d="M685.905 375.431L817.707 399.25C821.82 399.698 825.98 399.186 829.862 397.756C833.744 396.325 837.242 394.015 840.081 391.005C842.92 387.996 845.023 384.37 846.225 380.411C847.427 376.452 847.696 372.269 847.009 368.189L828.558 258.511C827.984 255.036 826.729 251.707 824.866 248.717C823.004 245.727 820.569 243.134 817.702 241.086C814.835 239.038 811.593 237.577 808.16 236.784C804.727 235.992 801.172 235.885 797.698 236.47C794.223 237.054 790.899 238.319 787.914 240.19C784.929 242.062 782.344 244.504 780.304 247.377C778.265 250.25 776.813 253.497 776.031 256.932C775.25 260.367 775.153 263.923 775.748 267.395L788.334 342.898L691.7 330.762L685.905 375.431Z" fill="#684EA0"/>
<path d="M817.708 399.738C817.829 399.737 817.945 399.69 818.034 399.607C818.122 399.525 818.177 399.412 818.188 399.292C818.198 399.171 818.163 399.051 818.09 398.954C818.016 398.858 817.91 398.792 817.791 398.77L686.443 375.035L692.116 331.307L788.261 343.382C788.336 343.393 788.414 343.385 788.486 343.36C788.558 343.334 788.623 343.292 788.676 343.236C788.728 343.182 788.767 343.116 788.789 343.044C788.812 342.972 788.817 342.896 788.805 342.821L780.812 294.569C780.803 294.505 780.78 294.445 780.747 294.39C780.713 294.335 780.669 294.288 780.617 294.25C780.564 294.213 780.505 294.186 780.443 294.172C780.38 294.158 780.315 294.157 780.252 294.168C780.124 294.189 780.01 294.26 779.935 294.366C779.86 294.471 779.83 294.602 779.851 294.729L787.738 342.336L691.76 330.283C691.632 330.268 691.504 330.304 691.402 330.383C691.3 330.461 691.233 330.577 691.215 330.704L685.421 375.372C685.405 375.497 685.437 375.622 685.511 375.723C685.585 375.824 685.695 375.893 685.818 375.915L817.62 399.73C817.649 399.735 817.678 399.738 817.708 399.738Z" fill="#0C0C0C"/>
<path d="M788.411 342.421L788.256 343.385L796.734 344.742L796.888 343.778L788.411 342.421Z" fill="#0C0C0C"/>
<path d="M905.917 751.762H0.581183C0.427044 751.762 0.279218 751.701 0.170225 751.592C0.0612317 751.483 0 751.335 0 751.181C0 751.027 0.0612317 750.879 0.170225 750.77C0.279218 750.661 0.427044 750.6 0.581183 750.6H905.915C906.07 750.6 906.217 750.661 906.326 750.77C906.435 750.879 906.497 751.027 906.497 751.181C906.497 751.335 906.435 751.483 906.326 751.592C906.217 751.701 906.07 751.762 905.915 751.762H905.917Z" fill="#292A2E"/>
<g opacity="0.65">
<path d="M905.917 751.762H0.581183C0.427044 751.762 0.279218 751.701 0.170225 751.592C0.0612317 751.483 0 751.335 0 751.181C0 751.027 0.0612317 750.879 0.170225 750.77C0.279218 750.661 0.427044 750.6 0.581183 750.6H905.915C906.07 750.6 906.217 750.661 906.326 750.77C906.435 750.879 906.497 751.027 906.497 751.181C906.497 751.335 906.435 751.483 906.326 751.592C906.217 751.701 906.07 751.762 905.915 751.762H905.917Z" fill="#292A2E"/>
</g>
<path d="M56.2547 752.254L54.624 751.94L80.1097 498.685L81.7404 498.998L56.2547 752.254Z" fill="#494949"/>
<path d="M151.152 752.254L149.521 751.94L175.006 498.685L176.637 498.998L151.152 752.254Z" fill="#494949"/>
<path d="M360.915 752.254L362.546 751.94L337.06 498.685L335.43 498.998L360.915 752.254Z" fill="#494949"/>
<path d="M266.019 752.254L267.649 751.94L242.164 498.685L240.534 498.998L266.019 752.254Z" fill="#494949"/>
<path d="M232.22 387.227L230.574 387.446L245.462 498.954L247.108 498.734L232.22 387.227Z" fill="#494949"/>
<path d="M61.332 387.225L59.686 387.445L74.5742 498.953L76.2202 498.733L61.332 387.225Z" fill="#494949"/>
<path d="M246.966 490.676H79.8175C75.3077 490.676 71.6519 494.332 71.6519 498.841V498.842C71.6519 503.352 75.3077 507.008 79.8175 507.008H246.966C251.476 507.008 255.131 503.352 255.131 498.842V498.841C255.131 494.332 251.476 490.676 246.966 490.676Z" fill="#292A2E"/>
<path opacity="0.8" d="M246.966 490.676H79.8175C75.3077 490.676 71.6519 494.332 71.6519 498.841V498.842C71.6519 503.352 75.3077 507.008 79.8175 507.008H246.966C251.476 507.008 255.131 503.352 255.131 498.842V498.841C255.131 494.332 251.476 490.676 246.966 490.676Z" fill="white"/>
<path d="M246.966 507.837H79.8177C78.6363 507.837 77.4665 507.605 76.3751 507.153C75.2837 506.7 74.292 506.038 73.4566 505.202C72.6213 504.367 71.9586 503.375 71.5065 502.284C71.0545 501.193 70.8218 500.023 70.8218 498.841C70.8218 497.66 71.0545 496.49 71.5065 495.399C71.9586 494.307 72.6213 493.316 73.4566 492.48C74.292 491.645 75.2837 490.982 76.3751 490.53C77.4665 490.078 78.6363 489.845 79.8177 489.845H246.966C249.352 489.845 251.64 490.793 253.327 492.48C255.014 494.167 255.962 496.456 255.962 498.841C255.962 501.227 255.014 503.515 253.327 505.202C251.64 506.889 249.352 507.837 246.966 507.837ZM79.8177 491.507C78.8544 491.507 77.9005 491.697 77.0105 492.065C76.1206 492.434 75.3119 492.974 74.6308 493.655C73.9496 494.336 73.4093 495.145 73.0407 496.035C72.672 496.925 72.4823 497.879 72.4823 498.842C72.4823 499.805 72.672 500.759 73.0407 501.649C73.4093 502.539 73.9496 503.348 74.6308 504.029C75.3119 504.71 76.1206 505.251 77.0105 505.619C77.9005 505.988 78.8544 506.178 79.8177 506.178H246.966C248.911 506.178 250.777 505.405 252.153 504.029C253.529 502.653 254.301 500.788 254.301 498.842C254.301 496.897 253.529 495.031 252.153 493.655C250.777 492.28 248.911 491.507 246.966 491.507H79.8177Z" fill="#292A2E"/>
<path d="M338.706 490.676H171.558C167.048 490.676 163.392 494.332 163.392 498.841V498.842C163.392 503.352 167.048 507.008 171.558 507.008H338.706C343.216 507.008 346.872 503.352 346.872 498.842V498.841C346.872 494.332 343.216 490.676 338.706 490.676Z" fill="white"/>
<path d="M338.706 507.837H171.558C170.377 507.837 169.207 507.605 168.115 507.153C167.024 506.7 166.032 506.038 165.197 505.202C164.361 504.367 163.699 503.375 163.247 502.284C162.795 501.193 162.562 500.023 162.562 498.841C162.562 497.66 162.795 496.49 163.247 495.399C163.699 494.307 164.361 493.316 165.197 492.48C166.032 491.645 167.024 490.982 168.115 490.53C169.207 490.078 170.377 489.845 171.558 489.845H338.706C339.888 489.845 341.057 490.078 342.149 490.53C343.24 490.982 344.232 491.645 345.067 492.48C345.903 493.316 346.565 494.307 347.017 495.399C347.469 496.49 347.702 497.66 347.702 498.841C347.702 500.023 347.469 501.193 347.017 502.284C346.565 503.375 345.903 504.367 345.067 505.202C344.232 506.038 343.24 506.7 342.149 507.153C341.057 507.605 339.888 507.837 338.706 507.837ZM171.558 491.507C170.595 491.507 169.641 491.697 168.751 492.065C167.861 492.434 167.052 492.974 166.371 493.655C165.69 494.336 165.15 495.145 164.781 496.035C164.412 496.925 164.223 497.879 164.223 498.842C164.223 499.805 164.412 500.759 164.781 501.649C165.15 502.539 165.69 503.348 166.371 504.029C167.052 504.71 167.861 505.251 168.751 505.619C169.641 505.988 170.595 506.178 171.558 506.178H338.706C339.67 506.178 340.623 505.988 341.513 505.619C342.403 505.251 343.212 504.71 343.893 504.029C344.574 503.348 345.115 502.539 345.483 501.649C345.852 500.759 346.042 499.805 346.042 498.842C346.042 497.879 345.852 496.925 345.483 496.035C345.115 495.145 344.574 494.336 343.893 493.655C343.212 492.974 342.403 492.434 341.513 492.065C340.623 491.697 339.67 491.507 338.706 491.507H171.558Z" fill="#292A2E"/>
<path d="M223.064 387.334H60.9579C58.3075 387.334 55.7477 386.369 53.7562 384.62C51.7648 382.871 50.4778 380.457 50.1355 377.829L39.4126 295.482C39.2122 293.943 39.3425 292.379 39.7947 290.894C40.2468 289.409 41.0106 288.038 42.0348 286.871C43.0591 285.705 44.3204 284.771 45.7345 284.131C47.1485 283.491 48.6829 283.159 50.2351 283.159H212.341C214.992 283.159 217.551 284.124 219.543 285.873C221.534 287.622 222.821 290.035 223.164 292.663L233.886 375.009C234.087 376.548 233.957 378.113 233.505 379.598C233.053 381.083 232.289 382.455 231.265 383.621C230.241 384.788 228.98 385.722 227.565 386.363C226.151 387.003 224.617 387.334 223.064 387.334Z" fill="#292A2E"/>
<path opacity="0.8" d="M223.064 387.334H60.9579C58.3075 387.334 55.7477 386.369 53.7562 384.62C51.7648 382.871 50.4778 380.457 50.1355 377.829L39.4126 295.482C39.2122 293.943 39.3425 292.379 39.7947 290.894C40.2468 289.409 41.0106 288.038 42.0348 286.871C43.0591 285.705 44.3204 284.771 45.7345 284.131C47.1485 283.491 48.6829 283.159 50.2351 283.159H212.341C214.992 283.159 217.551 284.124 219.543 285.873C221.534 287.622 222.821 290.035 223.164 292.663L233.886 375.009C234.087 376.548 233.957 378.113 233.505 379.598C233.053 381.083 232.289 382.455 231.265 383.621C230.241 384.788 228.98 385.722 227.565 386.363C226.151 387.003 224.617 387.334 223.064 387.334Z" fill="white"/>
<path d="M223.064 388.164H60.9578C58.1074 388.158 55.3562 387.117 53.2145 385.237C51.0728 383.356 49.6861 380.762 49.3117 377.936L38.5897 295.591C38.3738 293.935 38.5138 292.252 39.0002 290.654C39.4867 289.056 40.3084 287.58 41.4106 286.325C42.5128 285.07 43.87 284.064 45.3917 283.376C46.9135 282.687 48.5646 282.33 50.235 282.331H212.341C215.191 282.337 217.943 283.377 220.084 285.258C222.226 287.139 223.612 289.733 223.986 292.559L234.709 374.904C234.925 376.56 234.785 378.243 234.298 379.841C233.812 381.439 232.99 382.915 231.888 384.17C230.786 385.425 229.429 386.43 227.907 387.119C226.385 387.808 224.734 388.164 223.064 388.164ZM50.235 283.991C48.8009 283.991 47.3833 284.297 46.0768 284.888C44.7703 285.48 43.605 286.343 42.6587 287.421C41.7124 288.498 41.0068 289.765 40.589 291.137C40.1713 292.509 40.051 293.954 40.2361 295.376L50.9589 377.722C51.2802 380.148 52.4706 382.375 54.3094 383.99C56.1482 385.605 58.5105 386.498 60.9578 386.504H223.064C224.498 386.504 225.916 386.198 227.222 385.606C228.529 385.015 229.694 384.151 230.64 383.074C231.587 381.996 232.292 380.729 232.71 379.357C233.128 377.985 233.248 376.54 233.063 375.118L222.344 292.773C222.023 290.347 220.832 288.12 218.993 286.505C217.155 284.89 214.793 283.997 212.345 283.991H50.235Z" fill="#292A2E"/>
<path d="M232.23 387.334H70.1241C67.4737 387.334 64.914 386.369 62.9227 384.62C60.9314 382.871 59.6446 380.457 59.3024 377.829L48.5796 295.482C48.3792 293.943 48.5095 292.379 48.9617 290.894C49.4138 289.409 50.1776 288.038 51.2018 286.871C52.2261 285.705 53.4874 284.771 54.9015 284.131C56.3155 283.491 57.8499 283.159 59.4021 283.159H221.508C224.159 283.159 226.718 284.124 228.71 285.873C230.701 287.622 231.988 290.035 232.33 292.663L243.053 375.009C243.253 376.548 243.124 378.113 242.672 379.598C242.22 381.083 241.456 382.455 240.432 383.621C239.407 384.788 238.146 385.722 236.732 386.363C235.317 387.003 233.783 387.334 232.23 387.334Z" fill="white"/>
<path d="M232.23 388.164H70.1241C67.2738 388.158 64.5227 387.117 62.3811 385.236C60.2396 383.356 58.853 380.762 58.4788 377.936L47.756 295.591C47.5404 293.935 47.6805 292.252 48.1671 290.654C48.6537 289.056 49.4756 287.58 50.5778 286.325C51.68 285.07 53.0373 284.065 54.5589 283.376C56.0806 282.687 57.7317 282.331 59.4021 282.331H221.507C224.358 282.337 227.109 283.377 229.251 285.258C231.392 287.139 232.779 289.733 233.153 292.559L243.876 374.904C244.092 376.56 243.952 378.243 243.465 379.841C242.978 381.439 242.156 382.915 241.054 384.17C239.952 385.425 238.595 386.43 237.073 387.119C235.552 387.808 233.9 388.164 232.23 388.164ZM59.4021 283.991C57.9677 283.991 56.5498 284.297 55.2431 284.888C53.9363 285.479 52.7707 286.343 51.8241 287.42C50.8775 288.498 50.1717 289.765 49.7538 291.137C49.3359 292.509 49.2156 293.955 49.4007 295.377L60.1227 377.722C60.4443 380.148 61.6353 382.376 63.4745 383.991C65.3138 385.606 67.6764 386.498 70.1241 386.504H232.23C233.664 386.504 235.082 386.198 236.388 385.606C237.695 385.015 238.86 384.151 239.806 383.074C240.753 381.996 241.458 380.729 241.876 379.357C242.294 377.985 242.414 376.54 242.229 375.118L231.506 292.773C231.185 290.347 229.995 288.119 228.156 286.504C226.317 284.889 223.955 283.996 221.507 283.991H59.4021Z" fill="#292A2E"/>
<path d="M214.362 156.114C214.362 156.114 225.134 147.983 227.804 129.268C229.87 114.776 216.503 124.165 216.503 124.165C216.503 124.165 217.89 113.716 210.276 114.753C202.663 115.79 198.403 126.766 198.403 126.766" fill="#0C0C0C"/>
<path d="M170.93 115.979C170.93 115.979 133.158 120.029 146.813 171.213L150.155 171.437L156.939 171.892" fill="#0C0C0C"/>
<path d="M208.036 224.661C207.87 224.639 206.027 255.214 170.504 252.552C145.911 250.709 137.142 224.617 136.579 224.617C139.23 224.054 142.507 223.199 143.809 222.905C146.647 222.246 149.218 220.739 151.178 218.583C153.139 216.428 154.397 213.727 154.785 210.839C155.504 206.505 154.287 184.331 154.66 179.946L192.409 188.378C191.881 197.64 188.19 219.111 201.127 222.911C203.282 223.536 205.601 224.114 208.036 224.661Z" fill="#E98862"/>
<path opacity="0.52" d="M192.938 214.132C192.347 212.227 191.966 210.262 191.803 208.274C191.389 203.736 191.472 199.166 192.052 194.647C184.38 193.611 177.151 190.444 171.188 185.506C170.487 188.095 166.632 199.406 167.701 201.867C169.715 206.517 179.196 214.132 192.938 214.132Z" fill="#0C0C0C"/>
<path d="M185.148 208.08C170.256 206.745 152.431 197.335 152.174 177.12L151.938 158.879C151.68 138.663 162.09 122.14 181.124 121.898C200.158 121.656 214.593 137.863 214.851 158.079L214.953 166.154C214.94 168.928 214.738 171.697 214.349 174.442C213.372 181.707 211.858 192.752 206.928 200.224C202.275 207.278 194.661 208.934 185.148 208.08Z" fill="#E98862"/>
<path d="M192.056 189.602C195.13 189.741 198.193 189.156 200.999 187.894C201.057 187.869 201.11 187.833 201.154 187.788C201.198 187.743 201.233 187.69 201.256 187.631C201.28 187.573 201.291 187.51 201.291 187.447C201.29 187.384 201.277 187.322 201.252 187.264C201.228 187.206 201.192 187.153 201.147 187.109C201.101 187.065 201.048 187.03 200.99 187.007C200.931 186.983 200.869 186.971 200.806 186.972C200.742 186.973 200.68 186.986 200.622 187.011C194.577 189.584 189.088 189.211 184.749 185.92C184.662 185.85 184.571 185.785 184.477 185.725C184.368 185.674 184.243 185.666 184.128 185.702C184.013 185.738 183.916 185.816 183.856 185.92C183.795 186.025 183.777 186.148 183.803 186.266C183.83 186.384 183.899 186.487 183.999 186.556C184.034 186.578 184.09 186.622 184.165 186.682C186.446 188.42 189.194 189.436 192.056 189.602Z" fill="#0C0C0C"/>
<path d="M191.913 194.157C192.469 194.191 193.026 194.177 193.579 194.117C193.703 194.1 193.815 194.036 193.893 193.937C193.97 193.839 194.006 193.714 193.992 193.589C193.979 193.465 193.918 193.351 193.822 193.271C193.725 193.191 193.601 193.151 193.477 193.161C190.151 193.515 188.562 191.991 188.495 191.926C188.404 191.84 188.284 191.792 188.158 191.794C188.033 191.796 187.914 191.846 187.825 191.934C187.736 192.022 187.686 192.142 187.684 192.267C187.682 192.392 187.729 192.513 187.814 192.604C188.96 193.579 190.409 194.128 191.913 194.157Z" fill="#0C0C0C"/>
<path d="M208.567 170.042C209.862 170.042 210.912 168.992 210.912 167.697C210.912 166.402 209.862 165.353 208.567 165.353C207.272 165.353 206.223 166.402 206.223 167.697C206.223 168.992 207.272 170.042 208.567 170.042Z" fill="#0C0C0C"/>
<path d="M185.662 168.604C186.956 168.604 188.006 167.554 188.006 166.259C188.006 164.964 186.956 163.915 185.662 163.915C184.367 163.915 183.317 164.964 183.317 166.259C183.317 167.554 184.367 168.604 185.662 168.604Z" fill="#0C0C0C"/>
<path d="M153.432 183.263C147.649 183.337 142.881 177.208 142.805 171.424C142.73 165.641 147.381 162.39 153.165 162.316L156.195 166.154L158.404 183.2L153.432 183.263Z" fill="#E98862"/>
<path d="M159.188 173.968C159.188 173.968 161.14 145.363 169.815 143.597C175.592 142.421 189.601 150.615 202.577 148.14C208.254 147.061 213.643 148.462 214.191 151.144C214.408 152.206 217.944 136.947 209.055 125.369C201.977 116.153 178.815 113.546 168.277 116.568C139.099 124.938 151.974 163.575 151.974 163.575L153.275 173.437L159.188 173.968Z" fill="#0C0C0C"/>
<path d="M195.553 182.852H195.59C197.454 182.833 200.579 182.594 200.566 181.199C200.554 180.044 197.265 167.603 196.89 166.189C196.858 166.067 196.778 165.963 196.67 165.9C196.561 165.836 196.431 165.819 196.309 165.851C196.187 165.883 196.083 165.963 196.02 166.072C195.957 166.18 195.939 166.31 195.972 166.432C197.433 171.941 199.608 180.423 199.617 181.21C199.436 181.543 197.511 181.884 195.582 181.904C195.458 181.904 195.339 181.952 195.251 182.038C195.162 182.124 195.11 182.241 195.107 182.365C195.103 182.488 195.148 182.608 195.231 182.699C195.314 182.79 195.43 182.845 195.553 182.853V182.852Z" fill="#0C0C0C"/>
<path d="M201.913 154.984C203.872 154.445 205.94 154.445 207.899 154.984C208.862 155.243 209.779 155.645 210.623 156.176C211.456 156.697 212.22 157.321 212.897 158.033C213.022 158.16 213.093 158.33 213.095 158.508C213.098 158.686 213.032 158.858 212.911 158.988C212.79 159.119 212.623 159.197 212.445 159.208C212.268 159.219 212.093 159.161 211.957 159.046L211.915 159.009C211.288 158.429 210.591 157.93 209.84 157.524C209.102 157.12 208.308 156.83 207.484 156.664C205.862 156.325 204.179 156.419 202.605 156.937L202.539 156.96C202.411 157.005 202.274 157.025 202.138 157.018C202.002 157.011 201.868 156.977 201.745 156.918C201.622 156.859 201.512 156.777 201.421 156.675C201.33 156.574 201.259 156.456 201.214 156.327C201.168 156.198 201.149 156.062 201.156 155.926C201.163 155.79 201.197 155.656 201.256 155.533C201.314 155.41 201.397 155.3 201.498 155.208C201.6 155.117 201.718 155.047 201.847 155.001C201.869 154.996 201.892 154.99 201.913 154.984Z" fill="#0C0C0C"/>
<path d="M188.041 156.164C186.55 155.44 184.894 155.122 183.241 155.243C182.403 155.298 181.577 155.479 180.793 155.781C179.995 156.084 179.238 156.486 178.54 156.978L178.495 157.007C178.346 157.108 178.162 157.147 177.985 157.114C177.807 157.082 177.649 156.981 177.544 156.834C177.44 156.686 177.398 156.504 177.426 156.325C177.455 156.147 177.552 155.987 177.698 155.879C178.463 155.263 179.304 154.747 180.199 154.342C181.105 153.928 182.069 153.652 183.057 153.523C185.07 153.249 187.12 153.524 188.99 154.318C189.243 154.428 189.442 154.635 189.543 154.892C189.645 155.148 189.64 155.435 189.53 155.688C189.419 155.941 189.213 156.141 188.956 156.242C188.699 156.343 188.413 156.338 188.16 156.228C188.14 156.22 188.121 156.21 188.102 156.201L188.041 156.164Z" fill="#0C0C0C"/>
<path d="M199.125 135.291C203.407 134.397 205.81 128.563 204.493 122.261C203.177 115.959 198.639 111.576 194.357 112.47C190.075 113.365 187.672 119.199 188.988 125.501C190.305 131.802 194.843 136.186 199.125 135.291Z" fill="#0C0C0C"/>
<path d="M437.92 708.384C437.92 708.384 442.372 731.46 463.978 732.746C485.584 734.032 480.898 751.244 480.898 751.244H398.333V709.993L437.92 708.384Z" fill="#684EA0"/>
<path d="M280.846 693.814C280.846 693.814 274.651 716.486 293.473 727.177C312.295 737.868 300.491 751.244 300.491 751.244L226.405 714.795L244.614 677.781L280.846 693.814Z" fill="#684EA0"/>
<path d="M234.959 687.411L297.435 490.315H184.187C161.438 490.315 151.956 471.024 151.956 448.276C151.956 425.529 174.319 405.587 197.066 405.587H349.909C363.784 405.587 379.341 414.073 386.956 425.671C394.571 437.27 392.513 455.244 386.996 467.974L286.95 710.964" fill="#262626"/>
<path opacity="0.8" d="M234.959 687.411L297.435 490.315H184.187C161.438 490.315 151.956 471.024 151.956 448.276C151.956 425.529 174.319 405.587 197.066 405.587H349.909C363.784 405.587 379.341 414.073 386.956 425.671C394.571 437.27 392.513 455.244 386.996 467.974L286.95 710.964" fill="#0A0A0A"/>
<path d="M393.586 729.814L289.123 490.315L151.957 490.305C119.815 487.786 105.097 470.172 105.564 447.429C106.026 424.975 117.395 402.797 139.749 402.797H324.622C341.161 403.136 354.173 421.414 360.308 436.774L447.154 715.151" fill="#262626"/>
<path d="M96.2068 403.071C96.2068 403.071 90.1152 442.796 99.7711 464.882C111.826 492.455 157.015 490.306 157.015 490.306L154.469 402.797L96.2068 403.071Z" fill="#262626"/>
<path d="M364.236 402.29L267.345 382.212C263.307 381.375 259.546 379.534 256.409 376.858C253.272 374.183 250.86 370.759 249.397 366.904L211.288 266.481C210.146 263.471 209.607 260.265 209.704 257.047C209.8 253.829 210.53 250.661 211.851 247.725C213.172 244.788 215.058 242.141 217.402 239.934C219.746 237.726 222.501 236.002 225.512 234.86C228.522 233.718 231.727 233.179 234.946 233.276C238.164 233.373 241.332 234.102 244.268 235.423C247.204 236.744 249.851 238.63 252.059 240.974C254.266 243.318 255.99 246.073 257.132 249.084L290.469 336.925L374.188 354.273C374.188 354.273 365.918 402.637 364.236 402.29Z" fill="#684EA0"/>
<path d="M252.172 291.983C251.052 305.128 243.122 387.14 242.042 403.331H96.27C95.4323 388.727 92.7132 326.726 89.5374 298.169C86.5053 270.919 85.406 255.368 88.8981 246.899C95.057 231.964 110.469 226.589 123.744 224.792C131.851 223.694 144.043 222.907 144.043 222.907C144.043 222.907 145.075 243.791 169.691 244.953C203.2 246.531 200.963 222.907 201.128 222.907C206.557 222.907 236.106 226.855 243.495 231.671C253.93 238.473 257.015 247.743 257.137 256.259C257.277 266.064 253.443 277.074 252.172 291.983Z" fill="#684EA0"/>
<path d="M246.44 358.997C246.428 358.998 246.417 358.998 246.405 358.997C246.296 358.988 246.194 358.936 246.123 358.852C246.052 358.768 246.017 358.659 246.026 358.55L249.81 313.089C249.813 313.034 249.828 312.98 249.852 312.931C249.877 312.882 249.911 312.838 249.953 312.803C249.995 312.768 250.044 312.741 250.096 312.725C250.149 312.709 250.204 312.704 250.258 312.71C250.368 312.719 250.469 312.772 250.54 312.856C250.611 312.939 250.646 313.048 250.637 313.158L246.854 358.619C246.844 358.722 246.797 358.818 246.72 358.888C246.644 358.958 246.544 358.997 246.44 358.997Z" fill="#0C0C0C"/>
<path d="M315.87 386.279L347.856 287.957C348.418 286.229 349.513 284.723 350.983 283.656C352.453 282.588 354.223 282.013 356.04 282.013H486.351C487.71 282.013 489.049 282.334 490.259 282.951C491.469 283.568 492.516 284.463 493.314 285.562C494.112 286.661 494.639 287.933 494.851 289.275C495.064 290.616 494.955 291.989 494.535 293.281L462.549 391.603C461.987 393.331 460.893 394.836 459.423 395.904C457.953 396.972 456.182 397.547 454.365 397.547H324.052C322.693 397.546 321.355 397.225 320.145 396.608C318.935 395.991 317.888 395.096 317.09 393.997C316.292 392.898 315.766 391.626 315.554 390.284C315.342 388.943 315.45 387.57 315.87 386.279Z" fill="#292A2E"/>
<path d="M315.87 386.279L347.856 287.957C348.418 286.229 349.513 284.723 350.983 283.656C352.453 282.588 354.223 282.013 356.04 282.013H486.351C487.71 282.013 489.049 282.334 490.259 282.951C491.469 283.568 492.516 284.463 493.314 285.562C494.112 286.661 494.639 287.933 494.851 289.275C495.064 290.616 494.955 291.989 494.535 293.281L462.549 391.603C461.987 393.331 460.893 394.836 459.423 395.904C457.953 396.972 456.182 397.547 454.365 397.547H324.052C322.693 397.546 321.355 397.225 320.145 396.608C318.935 395.991 317.888 395.096 317.09 393.997C316.292 392.898 315.766 391.626 315.554 390.284C315.342 388.943 315.45 387.57 315.87 386.279Z" fill="#292A2E"/>
<path d="M341.963 389.575H254.732C252.559 389.575 250.797 391.337 250.797 393.51V393.611C250.797 395.785 252.559 397.547 254.732 397.547H341.963C344.136 397.547 345.898 395.785 345.898 393.611V393.51C345.898 391.337 344.136 389.575 341.963 389.575Z" fill="#292A2E"/>
<path d="M341.963 389.575H254.732C252.559 389.575 250.797 391.337 250.797 393.51V393.611C250.797 395.785 252.559 397.547 254.732 397.547H341.963C344.136 397.547 345.898 395.785 345.898 393.611V393.51C345.898 391.337 344.136 389.575 341.963 389.575Z" fill="#292A2E"/>
<path d="M405.202 358.243C412.75 358.243 418.869 352.124 418.869 344.576C418.869 337.028 412.75 330.909 405.202 330.909C397.654 330.909 391.535 337.028 391.535 344.576C391.535 352.124 397.654 358.243 405.202 358.243Z" fill="white"/>
<path d="M308.58 363.246L286.809 355.616L289.935 355.399C290.942 355.31 291.878 354.841 292.553 354.088C293.228 353.335 293.591 352.353 293.57 351.342C293.541 350.82 293.407 350.31 293.174 349.843C292.941 349.375 292.616 348.96 292.218 348.622C291.819 348.284 291.356 348.031 290.857 347.878C290.357 347.725 289.832 347.676 289.313 347.733L250.797 351.825L251.793 364.203C252.104 368.047 253.556 371.711 255.963 374.725C258.369 377.739 261.621 379.965 265.302 381.119L281.981 386.315C282.842 386.602 283.776 386.582 284.625 386.259C285.473 385.936 286.184 385.33 286.638 384.543C287.032 383.824 287.186 382.998 287.077 382.186C286.969 381.373 286.603 380.617 286.034 380.027C286.071 380 286.102 379.967 286.125 379.928C286.149 379.89 286.164 379.847 286.17 379.802C286.176 379.757 286.174 379.712 286.162 379.668C286.15 379.624 286.129 379.584 286.1 379.548L289.172 380.512C290.131 380.834 291.177 380.78 292.097 380.361C293.018 379.942 293.745 379.189 294.132 378.254C294.447 377.406 294.454 376.474 294.15 375.622C293.847 374.77 293.252 374.052 292.471 373.595C292.507 373.575 292.539 373.549 292.566 373.518L293.829 373.915C294.691 374.202 295.625 374.182 296.474 373.859C297.322 373.536 298.033 372.93 298.486 372.143C298.965 371.271 299.086 370.247 298.826 369.286C298.566 368.326 297.944 367.503 297.091 366.992C297.098 366.966 297.102 366.94 297.103 366.914L306.169 370.092C307.076 370.41 308.073 370.355 308.94 369.938C309.807 369.521 310.473 368.777 310.791 367.869C311.109 366.961 311.054 365.964 310.637 365.097C310.22 364.23 309.476 363.564 308.568 363.246H308.58Z" fill="#E98862"/>
<path opacity="0.2" d="M296.757 367.268C296.715 367.268 296.673 367.261 296.634 367.246L287.864 364.062C287.774 364.029 287.701 363.961 287.66 363.874C287.62 363.787 287.616 363.688 287.649 363.598C287.682 363.508 287.75 363.435 287.836 363.395C287.923 363.354 288.023 363.35 288.113 363.383L296.882 366.571C296.962 366.6 297.029 366.657 297.072 366.73C297.114 366.804 297.129 366.89 297.115 366.973C297.1 367.057 297.056 367.133 296.991 367.188C296.926 367.242 296.844 367.272 296.759 367.272L296.757 367.268Z" fill="#0A0A0A"/>
<path opacity="0.2" d="M292.324 373.645C292.283 373.645 292.242 373.638 292.203 373.624L285.291 371.171C285.246 371.155 285.205 371.131 285.17 371.099C285.134 371.067 285.106 371.029 285.085 370.986C285.065 370.943 285.053 370.897 285.051 370.85C285.048 370.802 285.055 370.755 285.071 370.71C285.087 370.665 285.111 370.624 285.143 370.589C285.175 370.554 285.213 370.525 285.256 370.505C285.299 370.484 285.345 370.473 285.393 370.47C285.44 370.468 285.488 370.475 285.532 370.491L292.445 372.943C292.525 372.972 292.593 373.028 292.636 373.101C292.679 373.175 292.695 373.261 292.68 373.345C292.666 373.429 292.622 373.505 292.557 373.56C292.492 373.615 292.409 373.645 292.324 373.645Z" fill="#0A0A0A"/>
<path opacity="0.2" d="M285.816 380.114C285.771 380.114 285.727 380.106 285.686 380.09L282.448 378.855C282.402 378.84 282.359 378.815 282.323 378.783C282.286 378.751 282.256 378.711 282.235 378.667C282.215 378.623 282.203 378.575 282.201 378.527C282.199 378.478 282.207 378.429 282.224 378.384C282.242 378.338 282.268 378.297 282.302 378.262C282.336 378.226 282.377 378.199 282.422 378.18C282.467 378.161 282.515 378.151 282.564 378.151C282.612 378.152 282.661 378.162 282.705 378.181L285.943 379.416C286.022 379.446 286.088 379.503 286.129 379.576C286.17 379.65 286.184 379.735 286.169 379.818C286.154 379.901 286.11 379.976 286.045 380.03C285.98 380.084 285.899 380.114 285.815 380.114H285.816Z" fill="#0A0A0A"/>
<path d="M267.843 344.501L176.514 344.439L141.964 260.157L90.4233 281.827L133.531 381.856L133.953 382.852C136.062 387.714 139.614 391.811 144.129 394.587C148.644 397.362 153.903 398.684 159.193 398.371L269.226 391.87L267.843 344.501Z" fill="#684EA0"/>
<path d="M157.679 398.83C152.559 398.821 147.552 397.32 143.271 394.512C138.99 391.704 135.619 387.709 133.572 383.016L133.149 382.02L96.4185 296.786L97.1806 296.458L134.335 382.689C136.42 387.466 139.917 391.489 144.357 394.218C148.797 396.947 153.966 398.252 159.169 397.956L268.799 391.48L267.441 344.917L176.237 344.856L149.669 280.052L150.437 279.737L176.793 344.026L268.245 344.087L269.651 392.262L269.248 392.285L159.216 398.786C158.703 398.815 158.19 398.83 157.679 398.83Z" fill="#0C0C0C"/>
<path d="M706.551 405.503L704.899 405.67L739.901 752.179L741.553 752.012L706.551 405.503Z" fill="#494949"/>
<path d="M56.0942 405.507L21.0684 752.014L22.7205 752.181L57.7463 405.674L56.0942 405.507Z" fill="#494949"/>
<path d="M200.807 405.507L165.781 752.013L167.433 752.18L202.459 405.674L200.807 405.507Z" fill="#494949"/>
<path d="M851.264 405.502L849.612 405.669L884.614 752.178L886.266 752.011L851.264 405.502Z" fill="#494949"/>
<path d="M882.828 398.785H26.8251C23.0679 398.785 20.022 401.831 20.022 405.588C20.022 409.345 23.0679 412.39 26.8251 412.39H882.828C886.585 412.39 889.631 409.345 889.631 405.588C889.631 401.831 886.585 398.785 882.828 398.785Z" fill="#292A2E"/>
<path opacity="0.8" d="M882.828 398.785H26.8251C23.0679 398.785 20.022 401.831 20.022 405.588C20.022 409.345 23.0679 412.39 26.8251 412.39H882.828C886.585 412.39 889.631 409.345 889.631 405.588C889.631 401.831 886.585 398.785 882.828 398.785Z" fill="white"/>
<path d="M882.828 413.221H26.8283C25.8192 413.231 24.818 413.041 23.8827 412.663C22.9474 412.284 22.0965 411.723 21.3792 411.013C20.662 410.303 20.0925 409.458 19.7039 408.527C19.3153 407.596 19.1152 406.597 19.1152 405.588C19.1152 404.578 19.3153 403.579 19.7039 402.648C20.0925 401.717 20.662 400.872 21.3792 400.162C22.0965 399.452 22.9474 398.891 23.8827 398.513C24.818 398.134 25.8192 397.944 26.8283 397.955H882.828C884.839 397.975 886.76 398.789 888.175 400.218C889.589 401.647 890.382 403.577 890.382 405.588C890.382 407.598 889.589 409.528 888.175 410.957C886.76 412.386 884.839 413.2 882.828 413.221ZM26.8283 399.615C26.038 399.606 25.2538 399.753 24.521 400.049C23.7882 400.345 23.1215 400.784 22.5593 401.339C21.9972 401.895 21.551 402.556 21.2464 403.286C20.9418 404.015 20.7849 404.797 20.7849 405.588C20.7849 406.378 20.9418 407.16 21.2464 407.89C21.551 408.619 21.9972 409.28 22.5593 409.836C23.1215 410.391 23.7882 410.83 24.521 411.126C25.2538 411.422 26.038 411.569 26.8283 411.56H882.828C884.4 411.541 885.901 410.904 887.006 409.786C888.111 408.668 888.731 407.159 888.731 405.588C888.731 404.016 888.111 402.507 887.006 401.389C885.901 400.271 884.4 399.634 882.828 399.615H26.8283Z" fill="#292A2E"/>
<path d="M882.828 398.785H177.07C173.313 398.785 170.267 401.831 170.267 405.588C170.267 409.345 173.313 412.39 177.07 412.39H882.828C886.585 412.39 889.631 409.345 889.631 405.588C889.631 401.831 886.585 398.785 882.828 398.785Z" fill="white"/>
<path d="M882.828 413.221H177.069C175.058 413.2 173.137 412.386 171.723 410.957C170.308 409.528 169.515 407.598 169.515 405.588C169.515 403.577 170.308 401.647 171.723 400.218C173.137 398.789 175.058 397.976 177.069 397.955H882.828C884.839 397.976 886.76 398.789 888.174 400.218C889.589 401.647 890.382 403.577 890.382 405.588C890.382 407.598 889.589 409.528 888.174 410.957C886.76 412.386 884.839 413.2 882.828 413.221ZM177.069 399.615C175.497 399.634 173.996 400.271 172.891 401.389C171.786 402.507 171.166 404.016 171.166 405.588C171.166 407.16 171.786 408.668 172.891 409.786C173.996 410.904 175.497 411.542 177.069 411.56H882.828C884.4 411.542 885.901 410.904 887.006 409.786C888.111 408.668 888.731 407.16 888.731 405.588C888.731 404.016 888.111 402.507 887.006 401.389C885.901 400.271 884.4 399.634 882.828 399.615H177.069Z" fill="#292A2E"/>
</svg>
