<svg width="18" height="18" viewBox="0 0 18 18" fill="none" xmlns="http://www.w3.org/2000/svg">
<path fill-rule="evenodd" clip-rule="evenodd" d="M12.4292 0.332031H5.35359C4.0411 0.335849 2.78346 0.85893 1.85538 1.78701C0.927303 2.71508 0.404211 3.97272 0.400391 5.28521V12.3608C0.404211 13.6733 0.927303 14.9309 1.85538 15.859C2.78346 16.7871 4.0411 17.3101 5.35359 17.314H12.4292C13.7417 17.3101 14.9993 16.787 15.9274 15.859C16.8554 14.9309 17.3785 13.6733 17.3824 12.3608V5.28521C17.3785 3.97272 16.8554 2.71508 15.9274 1.78701C14.9993 0.858931 13.7417 0.335856 12.4292 0.332031ZM13.4904 5.28519C13.2097 5.28458 12.9407 5.17258 12.7426 4.97378C12.5444 4.77498 12.4333 4.50564 12.4336 4.22495C12.4339 3.94426 12.5456 3.67516 12.7442 3.47679C12.9428 3.27842 13.212 3.16699 13.4927 3.16699C13.7734 3.16699 14.0426 3.27842 14.2412 3.47679C14.4398 3.67516 14.5515 3.94426 14.5518 4.22495C14.5521 4.50564 14.4409 4.77498 14.2428 4.97378C14.0446 5.17258 13.7757 5.28458 13.495 5.28519H13.4904ZM10.4645 6.46921C9.99904 6.1582 9.45181 5.99219 8.892 5.99219C8.5203 5.99219 8.15223 6.06539 7.80883 6.20763C7.46542 6.34987 7.1534 6.55836 6.89057 6.8212C6.62773 7.08403 6.41925 7.39605 6.277 7.73946C6.13476 8.08286 6.06154 8.45093 6.06154 8.82263C6.06154 9.38243 6.22755 9.92968 6.53857 10.3951C6.84958 10.8606 7.29163 11.2234 7.80883 11.4376C8.32602 11.6519 8.89511 11.7079 9.44417 11.5987C9.99322 11.4895 10.4976 11.2199 10.8934 10.8241C11.2892 10.4282 11.5588 9.92389 11.668 9.37484C11.7773 8.82579 11.7212 8.25667 11.507 7.73947C11.2928 7.22227 10.93 6.78023 10.4645 6.46921ZM6.53333 5.29263C7.2315 4.82614 8.05232 4.57714 8.892 4.57715C10.018 4.57716 11.0978 5.02447 11.894 5.82065C12.6902 6.61683 13.1375 7.69667 13.1375 8.82264C13.1375 9.66232 12.8885 10.4831 12.422 11.1813C11.9555 11.8795 11.2924 12.4236 10.5166 12.7449C9.74088 13.0663 8.88725 13.1504 8.06371 12.9865C7.24017 12.8227 6.4837 12.4184 5.88996 11.8246C5.29622 11.2309 4.89186 10.4744 4.72805 9.65087C4.56424 8.82732 4.64834 7.97371 4.96967 7.19795C5.29101 6.42219 5.83516 5.75913 6.53333 5.29263Z" fill="white"/>
</svg>
