<svg width="12" height="14" viewBox="0 0 12 14" fill="none" xmlns="http://www.w3.org/2000/svg">
<path d="M6.09587 0.0703125C4.73137 0.0718604 3.4232 0.614593 2.45835 1.57944C1.4935 2.54429 0.950767 3.85246 0.949219 5.21697C0.949219 9.62087 5.628 12.9486 5.82684 13.089C5.90653 13.1421 6.00013 13.1704 6.09587 13.1704C6.19161 13.1704 6.28521 13.1421 6.3649 13.089C6.56375 12.9486 11.2425 9.62087 11.2425 5.21697C11.241 3.85246 10.6982 2.54429 9.7334 1.57944C8.76855 0.614593 7.46038 0.0718604 6.09587 0.0703125ZM6.09587 3.34546C6.46602 3.34546 6.82786 3.45522 7.13563 3.66086C7.4434 3.86651 7.68327 4.1588 7.82492 4.50077C7.96657 4.84274 8.00364 5.21904 7.93142 5.58208C7.85921 5.94512 7.68097 6.27859 7.41923 6.54033C7.1575 6.80206 6.82402 6.98031 6.46099 7.05252C6.09795 7.12473 5.72165 7.08767 5.37968 6.94602C5.0377 6.80437 4.74541 6.56449 4.53977 6.25672C4.33412 5.94895 4.22436 5.58712 4.22436 5.21697C4.22436 4.72061 4.42154 4.24459 4.77252 3.89361C5.12349 3.54263 5.59952 3.34546 6.09587 3.34546Z" fill="white"/>
</svg>
