<svg width="14" height="11" viewBox="0 0 14 11" fill="none" xmlns="http://www.w3.org/2000/svg">
<path d="M12.7017 0.162109H0.609317C0.475688 0.162109 0.347533 0.215193 0.253043 0.309683C0.158553 0.404173 0.105469 0.532329 0.105469 0.665958V9.23139C0.105469 9.49864 0.211637 9.75496 0.400616 9.94394C0.589596 10.1329 0.845908 10.2391 1.11317 10.2391H12.1978C12.4651 10.2391 12.7214 10.1329 12.9104 9.94394C13.0994 9.75496 13.2055 9.49864 13.2055 9.23139V0.665958C13.2055 0.532329 13.1525 0.404173 13.058 0.309683C12.9635 0.215193 12.8353 0.162109 12.7017 0.162109ZM4.81016 5.2006L1.11317 8.58898V1.81221L4.81016 5.2006ZM5.55333 5.88709L6.3154 6.57988C6.40829 6.66486 6.52961 6.71198 6.6555 6.71198C6.78139 6.71198 6.90272 6.66486 6.9956 6.57988L7.75767 5.88709L11.4043 9.23139H1.90673L5.55333 5.88709ZM8.50085 5.2006L12.1978 1.81221V8.58898L8.50085 5.2006Z" fill="white"/>
</svg>
