<svg width="12" height="15" viewBox="0 0 12 15" fill="none" xmlns="http://www.w3.org/2000/svg">
<path d="M11.2552 10.9591L8.58248 8.9483C8.44541 8.8412 8.28329 8.7708 8.11144 8.74377C7.9396 8.71673 7.7637 8.73395 7.60036 8.7938L5.73932 9.46295C4.88181 8.74935 4.28652 7.77036 4.04751 6.68067L5.50391 5.32385C5.63228 5.20679 5.72938 5.05953 5.78639 4.89543C5.8434 4.73132 5.85852 4.55558 5.83037 4.38415L5.28727 1.08127C5.24771 0.857535 5.13791 0.652218 4.9738 0.495092C4.80968 0.337967 4.59978 0.237204 4.37454 0.207414C3.48668 0.107863 2.59288 0.334113 1.85931 0.844099C1.12575 1.35409 0.602337 2.1131 0.386393 2.98004C-0.861393 8.03692 2.2377 13.1664 7.29458 14.4142C8.16246 14.6263 9.07784 14.5161 9.87052 14.1039C10.6632 13.6918 11.2793 13.0058 11.6042 12.1736C11.6826 11.9603 11.691 11.7277 11.6283 11.5093C11.5655 11.2909 11.4348 11.0982 11.2552 10.9591Z" fill="white"/>
</svg>
