<svg width="17" height="17" viewBox="0 0 17 17" fill="none" xmlns="http://www.w3.org/2000/svg">
<path d="M8.4116 0.228516C6.51196 0.228655 4.67021 0.882498 3.19573 2.08022C1.72125 3.27795 0.703859 4.94658 0.314413 6.80587C-0.0750335 8.66516 0.187214 10.6018 1.05709 12.2906C1.92696 13.9794 3.35147 15.3174 5.09137 16.0798C5.05661 15.4435 5.10504 14.8053 5.23541 14.1815C5.39423 13.5094 6.29907 9.67209 6.29907 9.67209C6.11836 9.26019 6.0277 8.81444 6.03317 8.36468C6.03317 7.13855 6.74227 6.22263 7.62864 6.22263C7.78672 6.22022 7.94347 6.2517 8.08836 6.31496C8.23325 6.37822 8.3629 6.47179 8.46858 6.58937C8.57426 6.70696 8.65353 6.84582 8.70103 6.99662C8.74854 7.14741 8.76319 7.30662 8.74398 7.46354C8.74398 8.22066 8.26015 9.3508 8.0127 10.3997C7.9634 10.594 7.96047 10.7972 8.00414 10.9928C8.0478 11.1885 8.13684 11.3711 8.26408 11.526C8.39131 11.6809 8.55319 11.8038 8.73662 11.8846C8.92006 11.9655 9.11993 12.0021 9.32011 11.9915C10.886 11.9915 11.9423 9.97864 11.9423 7.59282C11.9423 5.77945 10.7198 4.42405 8.50019 4.42405C7.969 4.40318 7.43913 4.49056 6.94278 4.68089C6.44642 4.87123 5.99395 5.16053 5.61291 5.53121C5.23187 5.90189 4.9302 6.3462 4.72626 6.83712C4.52231 7.32804 4.42036 7.85532 4.42658 8.38688C4.40194 8.97633 4.59667 9.55399 4.97316 10.0082C5.03921 10.0627 5.08625 10.1368 5.10749 10.2198C5.12873 10.3027 5.12308 10.3903 5.09135 10.4699C5.05072 10.6213 4.96207 10.9869 4.92145 11.1346C4.91438 11.1793 4.89673 11.2217 4.87001 11.2581C4.84329 11.2946 4.80825 11.3242 4.7678 11.3444C4.72735 11.3647 4.68267 11.375 4.63745 11.3744C4.59223 11.3739 4.54778 11.3626 4.50781 11.3415C3.35183 10.8687 2.81263 9.60565 2.81263 8.18006C2.81263 5.83117 4.79587 3.01321 8.72547 3.01321C11.8832 3.01321 13.9625 5.29933 13.9625 7.75164C13.9625 10.998 12.1565 13.4207 9.49737 13.4207C9.10141 13.4312 8.70914 13.3423 8.35629 13.1624C8.00344 12.9824 7.70123 12.717 7.47719 12.3903C7.47719 12.3903 6.99707 14.296 6.89365 14.6654C6.70262 15.2929 6.4228 15.8899 6.06266 16.4381C7.20051 16.7742 8.39731 16.8616 9.57193 16.6945C10.7465 16.5274 11.8715 16.1096 12.8705 15.4696C13.8694 14.8295 14.7191 13.982 15.3617 12.9847C16.0044 11.9874 16.4251 10.8636 16.5952 9.68939C16.7654 8.51521 16.681 7.31816 16.3478 6.17945C16.0147 5.04074 15.4406 3.987 14.6644 3.08968C13.8882 2.19236 12.9281 1.47244 11.8493 0.978785C10.7704 0.485125 9.59804 0.229241 8.4116 0.228516Z" fill="white"/>
</svg>
