<svg width="18" height="15" viewBox="0 0 18 15" fill="none" xmlns="http://www.w3.org/2000/svg">
<path d="M15.4623 2.7803L17.1378 2.44519C16.6223 3.04507 16.0622 3.60516 15.4623 4.12069C15.4373 4.45533 15.4373 4.79136 15.4623 5.12599C12.2453 18.9321 0.382812 12.8333 0.382812 12.8333C4.7056 12.9338 5.07422 11.1578 5.07422 11.1578C2.56097 10.7892 2.05832 9.14719 2.05832 9.14719C2.2838 9.26613 2.54525 9.29771 2.79258 9.23588C3.03991 9.17404 3.25573 9.02315 3.39871 8.81208C2.66134 8.64467 2.01267 8.20881 1.57906 7.58935C1.14544 6.9699 0.957927 6.21123 1.05302 5.46109C1.53682 5.81039 2.1022 6.02961 2.69501 6.09777C2.39342 5.72915 -0.153352 2.67976 1.38811 1.10479C1.38811 1.10479 3.26467 4.45578 8.19063 4.75737L8.52574 4.69036C8.46876 4.449 8.44619 4.20079 8.45871 3.95312C8.45871 3.01994 8.82942 2.125 9.48928 1.46514C10.1491 0.805285 11.0441 0.434573 11.9773 0.43457C14.323 0.43457 14.8256 1.77498 14.8256 1.77498L16.5011 0.769674C16.4676 0.769684 16.3001 2.44519 15.4623 2.7803Z" fill="white"/>
</svg>
